<?xml version="1.0" encoding="utf-8"?>
<!-- Generator: Adobe Illustrator 19.2.1, SVG Export Plug-In . SVG Version: 6.00 Build 0)  -->
<svg version="1.1" id="Layer_1" xmlns="http://www.w3.org/2000/svg" xmlns:xlink="http://www.w3.org/1999/xlink" x="0px" y="0px"
	 viewBox="0 0 114.7 186.3" style="enable-background:new 0 0 114.7 186.3;" xml:space="preserve">
<style type="text/css">
	.st0{fill:#CECECE;}
</style>
<g transform="translate(1.70281982421875,-0.489501953125)">
	<path class="st0" d="M35.1,112.8c0-1.2,0.9-5.7,1.7-5.6c2.3,0.3,9.1,3.2,11.3,4c1.5,0.6,3.3,1.3,3.9,2c1,0,0.9,3.9,0.9,3.9
		c-0.1,2.7-4.1,15.8-4.2,16.8c-0.6,9.1-0.2,12.8-2.5,22c-0.8,1.6-1.7,2.2-3.2,2.1c-1,0,2.1,0-1.9-0.2c-4.4-0.2-6.6-0.4-6.5-1.6
		C35.8,140.5,34.1,129,35.1,112.8z"/>
</g>
<g transform="translate(-1.40521240234375,-0.739501953125)">
	<path class="st0" d="M79,112.8c0-1.2-1-5.7-1.8-5.6c-2.4,0.3-9.6,3.2-12,4c-1.6,0.6-3.4,1.3-4.2,2c-1,0-0.9,3.9-0.9,3.9
		c0.1,2.7,4.3,15.8,4.4,16.8c0.6,9.1,0.2,12.8,2.6,22c0.8,1.6,1.8,2.2,3.3,2.1c1.1,0-2.2,0,2-0.2c4.7-0.2,7-0.4,6.8-1.6
		C78.2,140.5,80.1,129,79,112.8z"/>
</g>
<g transform="translate(-0.043212890625,-1.328857421875)">
	<path class="st0" d="M15.3,89c2.4-4.6,4.3-8.9,6.2-13.1c2.7-6.2,5.3-12.3,8.9-19.2c3.7-8.1,5-8.7,5.8-8.2c0.4,0.3,0.2,2.4,0.2,3.4
		c-0.1,2.8,0.9,6.3,1.1,7.3c1.7,7.7,1.2,7.1-0.4,9.1c-2.8,3.5-0.7,0.3-6.1,7.1C28.5,78.4,26,93,24.9,95c-1.4,2.6-3.4-0.4-9.3,0.3
		C14.4,95.5,14.1,91.6,15.3,89z"/>
</g>
<g transform="translate(-0.00238037109375,-1.4287109375)">
	<path class="st0" d="M98.2,89.1c-2.4-4.6-4.3-8.9-6.2-13.1c-2.7-6.2-5.3-12.3-8.9-19.2c-3.7-8.1-5-8.7-5.8-8.2
		c-0.4,0.3-0.2,2.4-0.2,3.4c0.1,2.8-0.9,6.3-1.1,7.3c-1.7,7.7-1.2,7.1,0.4,9.1c2.8,3.5,0.7,0.3,6.1,7.1c2.5,3.1,4.9,17.7,6,19.7
		c1.4,2.6,3.4-0.4,9.3,0.3C99.2,95.6,99.5,91.8,98.2,89.1z"/>
</g>
<g transform="translate(0.706390380859375,-0.63671875)">
	<path class="st0" d="M22.3,96.9c-0.3,1.1-0.2,2.2,0.1,3.3c0.2,0.7,0.4,1.5,0.7,2.2c0.3,1.1,0.6,2.2,0.6,3.3c0,0,0,0,0,0.1
		c-0.4-0.1-0.8,0.1-1.1,0.2c-0.4,0.1-0.9,0.3-1.3,0.5c-0.2,0.1-0.4,0.2-0.6,0.3c-0.1,0.1-0.2,0.2-0.4,0.4c0,0-0.1,0.1-0.1,0.1
		c-0.7,0.6-1.3,1.3-1.6,2.2c-0.2,0.5-0.4,1.1-0.6,1.6c0,0.1-0.1,0.1-0.1,0.2c-0.9-0.9-2.6-1-3.5-0.2c-0.1-0.4-0.4-0.5-0.6-0.7
		c-0.4-0.2-0.9-0.3-1.4-0.3c-0.2,0-0.3,0.1-0.5,0.1c-0.1,0-0.1,0.1-0.2,0.1c0.2-0.7-0.1-1.2-0.3-1.8c-0.3-0.6-0.9-0.8-1.5-1.1
		c0-0.6-0.3-1.2-0.6-1.7c-0.1-0.1-0.1-0.2-0.2-0.2c-0.2-0.1-0.5-0.3-0.8-0.4c-0.1,0-0.2,0-0.2,0c-0.1,0-0.2,0-0.4,0.1
		c0.1-0.1,0.1-0.2,0.2-0.2c0.6-0.7,1.1-1.5,1.5-2.3c0.8-1.3,1.6-2.6,2.7-3.7c0.4-0.5,0.9-0.9,1.3-1.3c0.6-0.6,1-1,1.3-1.8
		c0.1-0.2,3.9,0,6.5,0.3c0.2,0.1,1.1,0.2,1.2,0.4C22.4,96.4,22.2,96.8,22.3,96.9z"/>
</g>
<g transform="translate(0.456390380859375,0.11328125)">
	<path class="st0" d="M13.8,120.2c-0.1,0-0.2,0-0.3,0.1c-0.6,0.1-1.1-0.3-1.1-1c0-0.8,0.2-1.6,0.4-2.4c0.6-1.8,1.1-3.5,1.7-5.3
		c0.1-0.2,0.2-0.4,0.4-0.5c0.5-0.3,1-0.4,1.5-0.3c0.5,0.1,0.9,0.3,1.3,0.5c0,0,0.1,0.1,0.1,0.1c0.1,0.1,0.1,0.2,0.1,0.3
		c-0.5,1.6-1,3.2-1.6,4.7c-0.2,0.7-0.5,1.4-0.8,2.1c-0.3,0.6-0.7,1-1.2,1.4c0,0,0,0,0,0C14,120.1,13.9,120.1,13.8,120.2z"/>
</g>
<g transform="translate(0.456390380859375,0.11328125)">
	<path class="st0" d="M3,110.9c0-0.3,0.1-0.5,0.2-0.8c0.5-1,1.2-1.9,2-2.7c0.7-0.7,1.3-1.3,2-2c0.3-0.3,0.7-0.4,1.1-0.2
		c0.2,0.1,0.5,0.2,0.6,0.3c0.1,0.1,0.3,0.3,0.3,0.5c0.1,0.2,0.2,0.5,0.3,0.8c0.1,0.2,0.1,0.4-0.1,0.6c-0.5,0.5-1,1-1.6,1.6
		c-0.7,0.7-1.4,1.4-2.1,2.1c-0.3,0.3-0.7,0.6-1.2,0.7c-0.6,0.1-1.1-0.1-1.6-0.6C3.1,111.1,3,111,3,110.9z"/>
</g>
<g transform="translate(0.456390380859375,0.11328125)">
	<path class="st0" d="M11.8,110.4c0.5-0.3,1-0.1,1.5,0c0.3,0.1,0.5,0.2,0.7,0.4c0.2,0.1,0.2,0.3,0.3,0.4c0,0,0,0.1,0,0.1
		c-0.8,1.9-1.7,3.6-2.7,5.4c-0.3,0.6-0.6,1.2-0.9,1.8c-0.2,0.4-0.5,0.7-0.8,0.9c-0.5,0.3-1,0.2-1.4-0.2C8,118.9,7.8,118.5,8,118
		c0.1-0.4,0.3-0.9,0.5-1.3c0.8-1.6,1.5-3.2,2.3-4.9c0.1-0.3,0.2-0.6,0.4-0.8C11.3,110.8,11.4,110.5,11.8,110.4z"/>
</g>
<g transform="translate(0.456390380859375,0.11328125)">
	<path class="st0" d="M5.4,116.1c-0.2-0.5-0.2-1.1,0-1.6c0.2-0.4,0.4-0.9,0.6-1.3c0.6-1.1,1.2-2.2,1.9-3.3c0.4-0.6,0.8-1.1,1.2-1.7
		c0.1-0.1,0.1-0.2,0.2-0.3c0.2-0.3,0.5-0.3,0.8-0.1c0.3,0.2,0.5,0.4,0.7,0.6c0.1,0.1,0.1,0.2,0.2,0.3c0.1,0.3,0.2,0.5,0.3,0.8
		c0.1,0.2,0.1,0.5-0.1,0.7c-0.4,0.6-0.8,1.2-1.1,1.7c-0.8,1.2-1.5,2.5-2.3,3.8c-0.2,0.4-0.5,0.7-0.9,1
		C6.4,117.1,5.7,116.9,5.4,116.1z"/>
</g>
<g transform="translate(0.706390380859375,-0.63671875)">
	<path class="st0" d="M20.7,112.5c-0.2-0.5-0.3-1.1-0.3-1.6c0-0.7,0.1-1.5,0.1-2.2c0-0.3-0.1-0.7-0.1-1c0-0.1,0-0.2,0.1-0.3
		c0.1-0.2,0.3-0.3,0.5-0.4c0.5-0.3,0.9-0.4,1.4-0.6c0.3-0.1,0.5-0.2,0.8-0.2c0.2,0,0.3-0.1,0.4,0c0.1,0.1,0.2,0.3,0.2,0.4
		c0,0.6,0,1.3,0,1.9c0,1.3,0.1,2.6,0.4,3.9c0.1,0.3,0.1,0.5,0.2,0.8c0.1,0.7-0.4,1.5-1.1,1.5c-0.3,0-0.5,0-0.7-0.2
		c-0.5-0.2-0.9-0.6-1.2-1.1C21.1,113.2,20.9,112.9,20.7,112.5z"/>
</g>
<g transform="translate(-0.007983398437545475,-0.9697265625)">
	<path class="st0" d="M92.2,109.2c0,0.8,0.1,1.6,0.1,2.4c0.1,1.4-0.7,2.5-1.7,3.4c0,0-0.1,0.1-0.2,0.1c-0.5,0.3-1,0.5-1.5,0.1
		c-0.5-0.4-0.7-0.9-0.6-1.5c0.4-1.7,0.5-3.4,0.5-5.2c-0.1-1.9,0.2-3.8,0.8-5.6c0.5-1.7,1-3.6,0.6-5.4c0-0.1-0.1-0.8,0.1-0.9
		c1.8-0.7,7.3-0.6,7.6-0.7c0.3-0.1,0.8,1.8,1.9,2.8c1.6,1.5,2.8,3.3,3.9,5.2c0.6,1,1.3,1.9,2.1,2.6c0.9,0.8,1.7,1.6,2.4,2.5
		c0.5,0.6,0.9,1.2,1.3,1.9c0.3,0.5,0,1-0.5,1.2c-0.8,0.4-1.6,0.2-2.3-0.5c-0.9-0.9-1.9-1.9-2.8-2.8c-0.2-0.2-0.4-0.4-0.7-0.6
		c0,0.2,0.1,0.3,0.2,0.5c1.5,1.8,2.5,3.8,3.6,5.8c0.3,0.6,0.5,1.3,0.4,2c-0.3,1-1.1,1.3-1.9,0.6c-0.3-0.2-0.5-0.5-0.7-0.8
		c-0.4-0.7-0.8-1.4-1.3-2.1c-0.6-1-1.2-1.9-1.8-2.9c0,0-0.1,0-0.1,0.1c0,0.1,0,0.1,0.1,0.2c1,2,2,4.1,2.9,6.1
		c0.2,0.3,0.3,0.7,0.3,1.1c0.1,0.6-0.3,1.2-0.8,1.4c-0.5,0.2-0.9,0.1-1.4-0.3c-0.2-0.2-0.4-0.4-0.5-0.6c-0.9-1.7-1.8-3.5-2.7-5.2
		c-0.4-0.7-0.7-1.4-1-2.1c-0.1,0-0.1,0-0.2,0.1c0.1,0.4,0.3,0.9,0.4,1.3c0.5,1.6,1.1,3.2,1.6,4.9c0.2,0.6,0.2,1.2,0.2,1.8
		c0,0.6-0.5,1-1.1,1c-0.3,0-0.6-0.2-0.9-0.3c-0.9-0.6-1.3-1.5-1.6-2.5c-0.5-1.3-0.9-2.6-1.3-4c-0.4-1.3-0.9-2.6-1.3-3.9
		c-0.3-0.9-0.8-1.6-1.7-2.2C92.3,108.5,92.2,108.8,92.2,109.2z"/>
</g>
<g transform="translate(-0.849609375,-0.69873046875)">
	<path class="st0" d="M68.6,159c1.7-0.2,1.4-0.2,2.8-0.2c2.7-0.1,3.6-0.2,5.1-0.3c0.5,0,2.3-0.4,2.6,0.1c1.1,1.8-0.3,3.1,1.5,5.9
		c0.5,1.1,1.7,1.9,2.7,2.7c3.2,2.6,6.5,5.3,10.5,6.8c1.3,0.5,2.7,1.1,3.8,2c0.9,0.8,1.5,2.1,1.8,3.2c0.3,1.3-2,3-3.7,2.8
		c-3.6-0.4-7.1-0.8-10.6-1.6c-5.5-1.2-11-2.6-16.5-3.9c-0.9-0.2-1.3-0.6-1.2-1.5c0.3-3.1,0.7-6.2,0.9-9.3c0.3-1.8,0.2-3.5-0.1-5.3
		C67.9,159.8,68.2,159,68.6,159z"/>
</g>
<g transform="translate(2.08837890625,-0.622802734375)">
	<path class="st0" d="M34.2,158.2c0-0.3,2.1,0.2,4.9,0.3c5.5,0.1,6.3-0.3,6.2,1.3c0,1.2-1.1,4.4,0.7,11.5c0.3,1.3,0.1,2.7,0,4.1
		c0,0.4-0.7,0.9-1.1,1c-2.9,0.7-5.8,1.3-8.7,2c-3.4,0.8-6.7,1.6-10.1,2.4c-1.2,0.3-2,0.1-2.1-1.4c-0.1-1.1-0.9-1.7-2-1.5
		c-2.1,0.3-4,0.4-5.8,1.8c-0.2,0.2-0.6,0.4-1.5,0.3c-0.8-0.1-0.8-1.7-0.6-2.2c0.8-1.1,1.8-2.2,2.9-2.9c2.2-1.3,4.7-2,6.8-3.4
		c2.4-1.5,4.3-3.8,6.7-5.3C33.7,164.6,33.4,158.2,34.2,158.2z"/>
</g>
<g transform="translate(1.83837890625,-0.372802734375)">
	<path class="st0" d="M23.8,180.2c-0.5,1.2-0.8,1.3-1.4,1.5c-1.5,0.4-3,0.7-4.6,0.8c-0.5,0-1.4-0.4-1.6-0.8
		c-0.2-0.4,0.1-1.6,0.5-1.8c1.8-1,5.4-1.6,6-1.3C23,178.7,23.8,179.2,23.8,180.2z"/>
</g>
<g transform="translate(0,-2.73046875)">
	<path class="st0" d="M71.2,19.3c-0.6-3.1-2.1-5.8-3.7-8.5C65.9,8.1,64,6.5,61.1,6c-6.2-1.2-10.8,2-15,5.9c-2,1.8-1.8,4.4-2.5,6.7
		c-1,3.4-0.2,6.4,1.2,9.3c0.2,0.3,0.6,0.5,1,0.8c0.1,1.1,0.2,2.1,0.2,2c0.2,0.6,0.4,1.8,0.5,2.3c0.6,2.5,0.7,4.2,2.1,6.5
		c0.3,0.5,1.5,1.9,1.8,2.4c1.1,1.8,0.6,3.4,0,4.7c-0.4,1-1,1.4-1.9,2c-0.5,0.4-0.5,0.2-0.9,0.8c-0.8,1,1.4,1,1.9,1
		c0.8,0,2.3,0.3,3.2,0.3c1.4,0,2.1,0.2,3.4,0.2c2.4,0,3.9-0.2,6.2-0.2c1.1,0,2-0.5,3-0.6c1-0.1,1.3-0.8,0.5-1.3
		c-0.7-0.5-1.1-1.3-1.4-2c-0.3-0.6-0.7-1.4-0.6-3.2c0.1-1.8,1.2-2.4,1.7-3.1c1-1.6,1.2-1.9,1.5-3c0.5-2.2,1.1-4.1,1.6-6
		c0.1,0.3,1.2-2.2,1.5-3.8c0.2-1.3,0.5-1,1.2-2.5C72,23.6,71.6,21.3,71.2,19.3z"/>
</g>
<g transform="translate(0,-2)">
	<path class="st0" d="M73.9,93.1c-2.5-5.1-2.8-7.6-3.7-12.7c-0.3-2-1-5.3,0.7-7.9c3.8-5.8,3.9-11.1,5.3-18.2
		c0.5-2.5,1.2-5.8-1.9-6.5c-1.2-0.3-13.4,0.9-17.2,0.8c-0.1,0-0.2,0-0.4,0c-0.1,0-0.2,0-0.4,0c-3.8,0-16-1.2-17.2-0.8
		c-3.1,0.8-2.4,4.1-1.9,6.5c1.4,7.1,1.5,12.4,5.3,18.2c1.7,2.6,1.1,5.9,0.7,7.9c-0.9,5-1.1,7.6-3.7,12.7c-1.6,3.2-4.3,7.3-4.2,10.2
		c0.1,2.2,2.3,3.7,4.2,4c7.2,1.5,12.9,6.6,17.1,6.6c4.2,0,9.9-5.1,17.1-6.6c1.9-0.4,4.1-1.9,4.2-4C78.2,100.4,75.5,96.3,73.9,93.1z"
		/>
</g>
<g transform="translate(0,0)">
	<path class="st0" d="M100.8,28.7c0,0,0.1,0,0.1,0c0.6-0.2,0.7-1,0.7-1.3c0-0.7-0.2-1.5-0.7-1.9c-0.4-0.4-1.1-0.7-1.8-0.7h0
		c-0.3,0-1,0.1-1.4,0.5c-0.1,0.1-0.1,0.3-0.1,0.5c0,0.2,0.3,0.5,0.6,0.5l0,0c0.2,0,0.3-0.1,0.4-0.2c0,0,0.1-0.1,0.1-0.1
		c0.1-0.1,0.3-0.1,0.5-0.1l0.1,0c0.3,0,0.7,0.1,0.9,0.4c0.3,0.3,0.4,0.7,0.4,1.2c0,0.1-0.1,0.2-0.1,0.3c-0.1,0.2-0.2,0.4-0.2,0.6
		C100.2,28.5,100.4,28.7,100.8,28.7C100.7,28.7,100.7,28.7,100.8,28.7z M101.3,32.5c0-0.9,0.4-1.8,1-2.5c0.8-0.8,1.2-1.9,1.2-3
		c0-2.3-1.9-4.3-4.3-4.3c-0.5,0-1,0.1-1.4,0.3c-0.4,0.1-0.8,0.4-1.1,0.6c-0.6,0.5-1.1,1.1-1.4,1.8c-0.1,0.3-0.7,1.8,0.1,1.7
		c0.3,0,0.3-0.2,0.3-0.4c0-0.3,0.1-0.7,0.2-1c0.5-1.3,1.9-2.2,3.3-2.2c1.9,0,3.5,1.6,3.5,3.5c0,0.9-0.4,1.8-1,2.5
		c-0.8,0.8-1.2,1.9-1.2,3c0,0.8-0.7,1.5-1.5,1.5c-0.7,0-1.1-0.2-1.3-0.8c-0.1-0.2-0.2-0.7-0.5-0.7c-0.2,0-0.5,0.2-0.4,0.5
		c0.1,0.3,0.2,0.7,0.4,0.9c0.4,0.5,1.1,0.9,1.8,0.9C100.3,34.7,101.3,33.7,101.3,32.5z M101.7,32.5c0-0.9,0.3-1.7,0.9-2.3
		c0.9-0.9,1.3-2,1.3-3.2c0-2.5-2.1-4.6-4.6-4.6c-0.5,0-1,0.1-1.5,0.3c-0.4,0.1-0.9,0.4-1.2,0.7c-0.7,0.5-1.2,1.2-1.5,2
		c-0.5,1.4-0.3,1.8-0.2,1.9c0.1,0.2,0.4,0.3,0.7,0.3c0.5-0.1,0.6-0.5,0.6-0.7c0-0.3,0.1-0.6,0.2-0.9c0.4-1.2,1.7-2,3-2
		c1.8,0,3.2,1.4,3.2,3.2c0,0.9-0.3,1.7-0.9,2.3c-0.9,0.9-1.3,2-1.3,3.2c0,0.6-0.5,1.2-1.2,1.2c-0.6,0-0.8-0.1-1-0.6
		c-0.1-0.3-0.3-0.9-0.8-0.9c0,0,0,0,0,0c-0.2,0-0.4,0.1-0.6,0.3c-0.1,0.2-0.2,0.4-0.1,0.6c0.1,0.4,0.3,0.8,0.5,1c0.5,0.6,1.3,1,2,1
		C100.5,35,101.7,33.9,101.7,32.5z M97.5,33.2c0.3,0.8,0.7,1.1,1.6,1.1c1,0,1.8-0.8,1.8-1.8c0-1.1,0.4-2,1.2-2.8
		c0.7-0.7,1.1-1.7,1.1-2.7c0-2.1-1.7-3.8-3.8-3.8c-1.6,0-3.1,1-3.6,2.4c-0.1,0.4-0.2,0.7-0.2,1c0,0.1,0,0.1,0,0.2l0,0.3l-0.1-0.3
		c0-0.1-0.1-0.4,0.3-1.3c0.3-0.7,0.7-1.2,1.3-1.7c0.3-0.2,0.7-0.4,1.1-0.6c0.5-0.2,0.9-0.2,1.3-0.2c2.2,0,3.9,1.8,3.9,3.9
		c0,1.1-0.4,2.1-1.2,2.8c-0.7,0.7-1.1,1.7-1.1,2.7c0,1.1-0.9,1.9-1.9,1.9c-0.5,0-1.1-0.3-1.5-0.7c-0.2-0.2-0.3-0.5-0.4-0.8
		c0,0,0.1-0.1,0.1-0.1C97.3,32.8,97.4,32.9,97.5,33.2z"/>
</g>
<g transform="translate(0,0)">
	<path class="st0" d="M98.5,50.8c-2.3,0-4.2-1.9-4.2-4.2s1.9-4.2,4.2-4.2s4.2,1.9,4.2,4.2S100.8,50.8,98.5,50.8z M98.5,43.4
		c-1.7,0-3.2,1.4-3.2,3.2s1.4,3.2,3.2,3.2c1.7,0,3.2-1.4,3.2-3.2C101.7,44.8,100.3,43.4,98.5,43.4z M98.5,50.9c-2.4,0-4.3-2-4.3-4.3
		s1.9-4.3,4.3-4.3c2.4,0,4.3,2,4.3,4.3C102.9,49,100.9,50.9,98.5,50.9z M98.5,42.5c-2.2,0-4,1.8-4,4s1.8,4,4,4s4-1.8,4-4
		S100.7,42.5,98.5,42.5z M98.5,49.9c-1.8,0-3.3-1.5-3.3-3.3s1.5-3.3,3.3-3.3s3.3,1.5,3.3,3.3S100.3,49.9,98.5,49.9z M98.5,43.6
		c-1.7,0-3,1.3-3,3s1.3,3,3,3c1.7,0,3-1.3,3-3S100.2,43.6,98.5,43.6z M104.7,40.7H101c-0.3,0-0.6-0.3-0.6-0.6s0.3-0.6,0.6-0.6h3.7
		c0.3,0,0.5,0.3,0.5,0.6S105,40.7,104.7,40.7z M101.2,44.3l-0.9-1l3.6-3.4l0.4-0.1l0.9,0.7L101.2,44.3z M104.8,44.3
		c-0.3,0-0.6-0.3-0.6-0.6v-3.7c0-0.3,0.3-0.5,0.6-0.5s0.6,0.2,0.6,0.5v3.7C105.3,44,105.1,44.3,104.8,44.3z"/>
</g>
<g transform="translate(0,0)">
	<path class="st0" d="M99.4,7.6c-0.1,0-0.2,0-0.3,0c0,0,0,0,0,0l0,0c-0.1,0-0.2,0-0.4,0c-4.4,0.2-6.5,4.2-6.5,4.2s2.2,4.2,6.8,4.2
		c4.6,0,6.8-4.2,6.8-4.2S103.8,7.8,99.4,7.6z M99,14.9c-2.9,0-4.7-2-5.5-3c0.5-0.8,1.3-1.4,2-1.9c0.2-0.2,0.5-0.3,0.8-0.5
		c-0.1,0.1,1.2-0.5,2.5-0.6c1.3-0.1,2.5,0.4,2.3,0.3c1.5,0.5,3,2.2,3.4,2.8C103.8,12.8,102,14.9,99,14.9z M98.8,8.7
		c-1.3,0.1-2.5,0.7-2.5,0.6c-0.1,0-0.1,0.1-0.1,0.1c-0.2,0.4-0.4,0.8-0.4,1.3c0,1.5,1.2,2.6,2.6,2.6c1.5,0,2.6-1.2,2.6-2.6
		c0-0.8-0.3-1.5-0.9-2C99.8,8.7,99.3,8.6,98.8,8.7z M97.6,11.3c-0.4,0-0.8-0.3-0.8-0.8c0-0.4,0.3-0.8,0.8-0.8c0.4,0,0.8,0.3,0.8,0.8
		C98.4,10.9,98,11.3,97.6,11.3z"/>
</g>
</svg>
