<?xml version="1.0" encoding="utf-8"?>
<!-- Generator: Adobe Illustrator 19.2.1, SVG Export Plug-In . SVG Version: 6.00 Build 0)  -->
<svg version="1.1" id="Layer_1" xmlns="http://www.w3.org/2000/svg" xmlns:xlink="http://www.w3.org/1999/xlink" x="0px" y="0px"
	 viewBox="0 0 194.5 269.2" style="enable-background:new 0 0 194.5 269.2;" xml:space="preserve">
<style type="text/css">
	.st0{fill:#CFCECE;}
</style>
<path id="leftear" class="st0" d="M18.1,145.9c0.1-1.7,0-3.4,0.3-5.1c0.2-1.4,0.6-2.9,1-4.2c0.8-2.3,2.9-3.6,5.3-3.4
	c2.4,0.2,4.1,1.6,4.7,4.1c2,8.5,3.9,17.1,6,25.6c0.4,1.6,1.1,3.2,1.7,4.8c0.8,2.1,0.3,3.1-2,3.2c-1.7,0.1-3.2-0.5-4.3-1.8
	c-2.4-3-4.9-5.9-6.9-9.2c-1.8-3-3.1-6.4-4.6-9.6c-0.1-0.3-0.3-0.5-0.4-0.8C18.6,148.4,18.3,147.2,18.1,145.9z"/>
<path id="leftear_1_" class="st0" d="M179.3,146.4c0-1.7,0.1-3.4,0-5.1c-0.1-1.5-0.4-2.9-0.9-4.3c-0.7-2.4-2.8-3.7-5.2-3.6
	c-2.4,0.1-4.2,1.5-4.9,3.9c-2.4,8.5-4.6,16.9-7,25.4c-0.5,1.6-1.2,3.2-1.9,4.8c-0.9,2.1-0.4,3.1,1.8,3.3c1.7,0.2,3.2-0.4,4.3-1.6
	c2.5-2.9,5.2-5.7,7.3-8.9c2-2.9,3.3-6.3,5-9.5c0.1-0.3,0.3-0.5,0.4-0.8C178.7,148.9,179,147.7,179.3,146.4z"/>
<path class="st0" d="M173,84.9c-3.3-16.6-11.4-31.2-20-46c-8.6-14.8-19.1-23.1-34.5-26C84.9,6.5,60.2,23.6,37.4,45
	c-10.7,10-9.7,23.9-13.3,36.4c-5.4,18.4-0.9,34.4,6.6,50.4c0.8,1.8,3.3,2.9,5.2,4.2c0.5,5.7,1,11.1,1,11.1c0.9,3.2,2.1,9.8,2.7,12.2
	c3.4,13.7,4,22.9,11.6,35.4c1.6,2.7,7.9,10.2,9.5,12.9c6.1,9.6,3.1,18.2,0,25.2c-2.3,5.2-5.4,7.7-10,11.1c-2.9,2.1-2.4,1.2-5,4.2
	c-4.5,5.2,7.6,5.3,10.4,5.3c4.5-0.1,12.6,1.8,17.1,1.8c7.4,0,11.1,0.9,18.5,0.9c12.9,0,20.9-0.9,33.7-0.9c5.7,0,10.7-2.5,16.4-3.2
	c5.2-0.6,6.8-4.2,2.9-7.1c-3.6-2.7-5.7-7.1-7.7-11c-1.6-3.2-3.9-7.4-3.4-17.3c0.5-9.6,6.5-13.1,9-17c5.4-8.4,6.7-10.3,8-16
	c2.7-11.7,6.1-22.1,8.5-32.4c0.4,1.4,6.6-11.9,8.2-20.6c1.3-6.9,2.7-5.5,6.4-13.7C177.5,108.1,175.1,95.4,173,84.9z"/>
<path id="lefteye" d="M73.1,130.3c0.6,0.1,1.1,0.2,1.6,0.3c3.9,0.9,7,3.2,9.6,6.1c0.4,0.5,0.7,1.2,0.9,1.8c0.3,0.6,0,1.2-0.6,1.6
	c-0.6,0.4-1.2,0.3-1.7-0.2c-0.5-0.6-0.8-0.5-1.2,0.1c-0.3,0.4-0.8,0.7-1.3,0.9c-7.7,3.7-15.1,3.2-22.2-1.8c-0.6-0.4-1.1-0.9-1.7-1.3
	c0-0.1,0-0.1,0-0.2c0.2-0.2,0.3-0.4,0.5-0.6c3.1-3,6.6-5.3,10.9-6.4c0.7-0.2,1.4-0.3,2.1-0.4C71,130.3,72,130.3,73.1,130.3z"/>
<path id="righteye" d="M125.3,131.5c-0.5,0.1-1.1,0.2-1.6,0.3c-3.9,0.9-7,3.2-9.6,6.1c-0.4,0.5-0.7,1.2-0.9,1.8
	c-0.3,0.6,0,1.2,0.6,1.6c0.6,0.4,1.2,0.3,1.7-0.2c0.5-0.6,0.8-0.5,1.2,0.1c0.3,0.4,0.8,0.7,1.3,0.9c7.7,3.7,15.1,3.2,22.2-1.8
	c0.6-0.4,1.1-0.9,1.7-1.3c0,0,0-0.1,0-0.1c-0.2-0.2-0.3-0.4-0.5-0.6c-3.1-3-6.6-5.3-10.9-6.4c-0.7-0.2-1.4-0.3-2.1-0.4
	C127.4,131.5,126.3,131.5,125.3,131.5z"/>
</svg>
