<?xml version="1.0" encoding="utf-8"?>
<!-- Generator: Adobe Illustrator 19.2.1, SVG Export Plug-In . SVG Version: 6.00 Build 0)  -->
<svg version="1.1" id="Layer_1" xmlns="http://www.w3.org/2000/svg" xmlns:xlink="http://www.w3.org/1999/xlink" x="0px" y="0px"
	 viewBox="0 0 612 792" style="enable-background:new 0 0 612 792;" xml:space="preserve">
<style type="text/css">
	.st0{fill:#FFFFFF;}
	.st1{fill-rule:evenodd;clip-rule:evenodd;}
	.st2{fill-rule:evenodd;clip-rule:evenodd;fill:#FFFFFF;}
</style>
<g id="zRul65_1_">
	<g>
		<path class="st0" d="M17.2,556.7c0-149.9,0-299.8,0-449.8c137.9,0,275.8,0,413.8,0c-0.3,0.1-0.6,0.4-0.8,0.4
			c-15.7,2.5-29.1,10-41.3,19.8c-14.7,12-26.9,26.5-39.4,40.5c-27.7,31-55.1,62.1-82.8,93.1c-2.4,2.7-3,5-1.6,8.1
			c0.4,1,0.8,2,1.4,2.8c6.7,9.3,14.4,17.9,23.8,24.5c11.5,8,24.6,10,38.3,8.4c5-0.6,9.5-2.6,13.1-6.7c30.2-35,60.5-70,91-104.8
			c13.4-15.3,25.2-31.5,33.2-50.4c6.3-14.9-0.2-29.3-15.8-33.8c-2.7-0.8-5.5-1.3-8.2-2c51.7,0,103.3,0,155,0c0,104,0,207.9,0,311.9
			c-5.1-14.8-15.7-23.9-30.4-28.1c-11.7-3.4-23.2-1-34.3,3.3c-22.6,8.8-45.2,17.6-67.8,26.5c-17,6.7-33.8,13.8-50.9,20.2
			c-6.3,2.4-7.4,7.3-7.7,12.7c-0.4,6.8-0.5,13.7,0,20.5c0.4,4.8,1.7,9.6,3.2,14.3c1.9,5.9,6.5,10,10.9,14.1
			c7.8,7.3,16.9,9.1,26.8,5.2c21.7-8.4,43.6-16.6,65.1-25.5c26-10.6,50.8-23.4,72.7-41.3c5.3-4.3,10.4-8.6,12.2-15.5
			c0,87.3,0,174.5,0,261.9c-148,0-296.1,0-444.1,0c2.7-2.4,5.6-4.6,8-7.3c4.1-4.5,7.6-9.6,11.8-14c15.1-15.9,33.5-27.1,53.6-35.6
			c14.3-6.1,29-11.3,43.2-17.6c35.2-15.7,67.4-36.7,98.8-59c18.5-13.2,37-26.5,57.5-36.6c2-1,4-2,6.8-3.4c-3.9-1-6.9-1.6-9.9-2.5
			c-2-0.6-4.5-0.9-5.7-2.3c-4.7-5.4-9.2-11.1-13.3-16.9c-1.6-2.3-2.9-5.3-3.1-8.1c-1.4-15.3-2.8-30.7,4.3-44.9
			c-10.6-11.7-21.6-23.1-22.4-39.6c-0.8-15.3-1.5-31,10.3-44.1c-2.6,0-4.4,0.1-6.2,0c-4.4-0.4-9-0.1-13.1-1.6
			c-11.4-4.1-20.9-11.2-28.8-20.4c-5.3-6.1-10.8-12.4-8.2-21.7c-29.8,9.1-65.6-9.6-78.1-40.2c-1.4,1.6-2.8,3-4.1,4.5
			c-9.6,10.4-19.1,20.8-28.8,31c-16,16.8-35.4,28-57.8,33.9c-1.5,0.4-2.8,1.3-4.2,1.9c-4,1.7-7.9,4.1-12.1,5
			c-5.6,1.2-11.5,1.6-17.3,1.5c-11.5-0.3-23.1-0.7-34.6-1.9c-9.3-0.9-19.1-0.4-27.4-6.5c-0.3,0.8-0.5,1.1-0.6,1.5
			c-9,26.5-14.6,53.7-17.6,81.5c-2.1,18.9-3.7,37.9-6.4,56.8C43,508.2,34,534,17.2,556.7z M391.3,349.9c8.3,1.3,15.1-2.3,21.1-6.9
			c6.1-4.6,11.6-10.1,17.4-15.2c33.4-29.5,66.9-59,100.3-88.4c8.4-7.4,16.4-15.1,22.8-24.4c7.7-11,8.1-22.5,3.2-34.4
			c-5.7-13.8-17.3-20.9-30.9-18.5c-10.3,1.9-20,6-28.2,12.6c-13.2,10.5-26.2,21.2-39.2,32c-38.8,32-78,63.4-114.7,97.9
			c-0.6,0.5-1.2,1.2-1.4,2c-1.1,4.4-1.3,8.9,1.6,12.7c4.1,5.2,7.9,10.8,12.8,15.1C366.2,343.1,376.8,351.4,391.3,349.9z
			 M594.2,282.9c0.2-20.3-14.5-32.4-34.3-28c-10.8,2.4-20.7,6.9-29.7,13.3c-29.6,21.3-59,42.7-88.7,63.9c-14,10-28.6,19.2-42.8,29
			c-5.2,3.6-8.5,8.7-8.7,15.3c-0.2,7.1-0.5,14.1-0.4,21.2c0,2.7,0.3,5.6,1.5,7.9c3.5,6.9,7.3,13.7,11.3,20.3
			c4.7,7.7,12.3,9.8,20.4,5.7c2.8-1.4,5.4-3.2,8.1-4.9c15-8.9,30.3-17.4,44.9-26.9c26.5-17.1,51.1-36.8,75.6-56.6
			c9.2-7.5,18.5-15,27-23.3C588.4,309.7,593.6,297.2,594.2,282.9z M206.5,213.9c0.2-9.1-1.2-18.4-4-27.5c-4-13-8.1-25.9-17.5-36.3
			c-4.4-4.8-9.2-8.9-15.6-10.8c-16.9-5.1-35.7,6.4-40,24.6c-1.5,6.2-2.3,12.6-3.5,18.9C119.3,215,108.5,246,95,276.1
			c-6.5,14.6-13.1,29.1-19.1,43.9c-1.4,3.4-1,8-0.1,11.6c1.2,4.4,5.7,5.1,9.7,5.5c6.7,0.7,13.4,1.3,20.1,1.9c13,1.4,26,1.8,39.1,0.6
			c5.8-0.5,11.3-1.8,16.5-4.8c2.6-1.5,3.9-3.5,4.7-6.3c2.3-8.2,4.1-16.6,7.6-24.3c7.5-16.8,15.8-33.2,23.8-49.8
			C203.3,241.8,206.7,228.5,206.5,213.9z"/>
		<path class="st1" d="M17.2,556.7C34,534,43,508.2,46.9,480.6c2.7-18.8,4.3-37.8,6.4-56.8c3.1-27.8,8.6-55,17.6-81.5
			c0.1-0.4,0.3-0.7,0.6-1.5c8.3,6.1,18.1,5.6,27.4,6.5c11.5,1.1,23.1,1.6,34.6,1.9c5.8,0.1,11.7-0.3,17.3-1.5
			c4.2-0.9,8.1-3.3,12.1-5c1.4-0.6,2.7-1.5,4.2-1.9c22.4-6,41.8-17.1,57.8-33.9c9.7-10.2,19.2-20.7,28.8-31c1.3-1.4,2.7-2.9,4.1-4.5
			c12.5,30.6,48.3,49.3,78.1,40.2c-2.6,9.3,2.9,15.6,8.2,21.7c7.9,9.1,17.4,16.3,28.8,20.4c4,1.4,8.7,1.2,13.1,1.6
			c1.8,0.2,3.6,0,6.2,0c-11.8,13.1-11.1,28.8-10.3,44.1c0.8,16.4,11.8,27.9,22.4,39.6c-7.1,14.2-5.7,29.6-4.3,44.9
			c0.3,2.8,1.5,5.8,3.1,8.1c4.1,5.9,8.6,11.5,13.3,16.9c1.2,1.4,3.8,1.7,5.7,2.3c3,0.9,6,1.5,9.9,2.5c-2.8,1.4-4.8,2.4-6.8,3.4
			c-20.5,10.1-38.9,23.4-57.5,36.6c-31.3,22.3-63.5,43.3-98.8,59c-14.2,6.3-28.9,11.5-43.2,17.6c-20,8.5-38.4,19.7-53.6,35.6
			c-4.2,4.4-7.8,9.4-11.8,14c-2.4,2.7-5.3,4.9-8,7.3c-1.7,0-3.4,0-5.1,0c-3.2-1.9-6.7-3.5-9.7-5.8c-3.9-3-7.6-6.3-11.2-9.7
			c-33.3-31.7-66.6-63.5-100-95.2c-4.1-3.9-8-7.6-9.5-13.3C17.2,561,17.2,558.9,17.2,556.7z"/>
		<path class="st1" d="M441.8,106.9c2.7,0.6,5.5,1.2,8.2,2c15.6,4.5,22.2,18.9,15.8,33.8c-8,18.9-19.8,35.1-33.2,50.4
			c-30.4,34.8-60.7,69.8-91,104.8c-3.6,4.2-8.1,6.1-13.1,6.7c-13.7,1.6-26.8-0.4-38.3-8.4c-9.5-6.6-17.1-15.2-23.8-24.5
			c-0.6-0.8-0.9-1.9-1.4-2.8c-1.4-3.1-0.8-5.4,1.6-8.1c27.7-30.9,55.1-62.1,82.8-93.1c12.6-14.1,24.7-28.6,39.4-40.5
			c12.2-9.9,25.6-17.3,41.3-19.8c0.3,0,0.6-0.3,0.8-0.4C434.6,106.9,438.2,106.9,441.8,106.9z"/>
		<path class="st1" d="M596.8,425.2c-1.9,6.9-7,11.2-12.2,15.5c-21.9,17.9-46.7,30.7-72.7,41.3c-21.6,8.8-43.4,17.1-65.1,25.5
			c-9.9,3.8-19,2.1-26.8-5.2c-4.4-4.1-9-8.2-10.9-14.1c-1.5-4.6-2.9-9.5-3.2-14.3c-0.5-6.8-0.4-13.7,0-20.5
			c0.3-5.4,1.4-10.3,7.7-12.7c17.1-6.5,33.9-13.5,50.9-20.2c22.6-8.9,45.2-17.7,67.8-26.5c11.1-4.3,22.5-6.6,34.3-3.3
			c14.7,4.2,25.3,13.3,30.4,28.1C596.8,420.9,596.8,423,596.8,425.2z"/>
		<path class="st2" d="M17.2,563.1c1.4,5.7,5.4,9.5,9.5,13.3c33.4,31.7,66.6,63.5,100,95.2c3.6,3.4,7.3,6.7,11.2,9.7
			c3,2.2,6.4,3.9,9.7,5.8c-43.4,0-86.9,0-130.3,0C17.2,645.7,17.2,604.4,17.2,563.1z"/>
		<path class="st1" d="M391.3,349.9c-14.5,1.4-25.1-6.9-35.1-15.6c-4.9-4.3-8.7-9.9-12.8-15.1c-3-3.8-2.7-8.3-1.6-12.7
			c0.2-0.7,0.8-1.4,1.4-2c36.6-34.5,75.9-65.9,114.7-97.9c13-10.7,26-21.5,39.2-32c8.3-6.6,17.9-10.7,28.2-12.6
			c13.6-2.5,25.2,4.7,30.9,18.5c4.9,12,4.5,23.4-3.2,34.4c-6.5,9.3-14.4,17-22.8,24.4c-33.5,29.5-66.9,59-100.3,88.4
			c-5.8,5.1-11.3,10.6-17.4,15.2C406.4,347.6,399.6,351.2,391.3,349.9z"/>
		<path class="st1" d="M594.2,282.9c-0.5,14.3-5.8,26.8-15.9,36.8c-8.4,8.4-17.7,15.9-27,23.3c-24.5,19.8-49.1,39.4-75.6,56.6
			c-14.6,9.5-29.9,18-44.9,26.9c-2.7,1.6-5.3,3.5-8.1,4.9c-8.2,4.1-15.8,2.1-20.4-5.7c-4-6.6-7.8-13.4-11.3-20.3
			c-1.2-2.3-1.5-5.3-1.5-7.9c-0.1-7.1,0.2-14.1,0.4-21.2c0.2-6.6,3.5-11.6,8.7-15.3c14.2-9.8,28.7-19,42.8-29
			c29.7-21.1,59.1-42.6,88.7-63.9c9-6.5,18.9-11,29.7-13.3C579.6,250.5,594.4,262.6,594.2,282.9z"/>
		<path class="st1" d="M206.5,213.9c0.2,14.7-3.2,28-9.3,40.7c-8,16.6-16.3,33-23.8,49.8c-3.4,7.7-5.2,16.1-7.6,24.3
			c-0.8,2.8-2.1,4.8-4.7,6.3c-5.1,3-10.7,4.2-16.5,4.8c-13,1.2-26.1,0.7-39.1-0.6c-6.7-0.7-13.4-1.2-20.1-1.9
			c-4-0.4-8.6-1.1-9.7-5.5c-1-3.7-1.3-8.2,0.1-11.6c6-14.8,12.6-29.3,19.1-43.9c13.5-30.1,24.3-61.1,30.8-93.5
			c1.3-6.3,2.1-12.7,3.5-18.9c4.3-18.2,23.1-29.6,40-24.6c6.4,1.9,11.2,6,15.6,10.8c9.4,10.4,13.5,23.4,17.5,36.3
			C205.3,195.4,206.7,204.8,206.5,213.9z"/>
	</g>
</g>
</svg>
