<?xml version="1.0" encoding="utf-8"?>
<!-- Generator: Adobe Illustrator 19.2.1, SVG Export Plug-In . SVG Version: 6.00 Build 0)  -->
<svg version="1.1" id="Layer_1" xmlns="http://www.w3.org/2000/svg" xmlns:xlink="http://www.w3.org/1999/xlink" x="0px" y="0px"
	 viewBox="0 0 245.5 502.6" style="enable-background:new 0 0 245.5 502.6;" xml:space="preserve">
<style type="text/css">
	.st0{fill:#CECECE;}
</style>
<path class="st0" d="M140.8,77.7c-1.7-0.9-2.8-2.2-3.5-3.8h-30.7c-1,2.2-2.4,3.7-4.8,5c-3.8,2.1-8.1,3.4-12.1,5.2
	c-1.8,0.8-3.5,1.6-5.5,1.9c-0.9,0.1-1.8,0.2-2.7,0.3V138c0.1-0.1,0.2-0.3,0.3-0.4c1.6,2.7,2.3,4.5,2.7,7.7c0.2,2-0.1,5,0.8,6.8
	c2.1,4.5,2.5,10.5,2.9,15.4c0.3,4.5,1.1,9.1,1,13.7c-0.1,4-1,8-2.1,11.8c-1.2,3.9-2.4,7.9-4.3,11.5c-1.9,3.6-2.4,7.6-3.1,11.6
	c-1.5,8.3-5.1,16.1-6.6,24.5c-0.7,3.8-2.8,7.1-3.3,11c-0.4,3-0.8,6.1-1.2,9.1h48.8c0.4-0.4,0.9-0.8,1.4-1.2c1-1,2.2-2,3.7-1.8
	c1.6,0.2,2.2,1.7,3.5,2.4c0.4,0.2,0.7,0.4,0.9,0.6h49.1c-0.2-1.1-0.4-2.1-0.6-3.2c-0.7-4.1-1.3-8.2-2.5-12.3
	c-1.2-4.3-2.3-8.7-3.4-13c-0.5-1.9-1.7-3.5-2.3-5.4c-0.7-1.9-0.9-4-1.1-6c-0.2-2.2-0.4-4.3-1.3-6.3c-0.7-1.5-1.6-3.1-1.7-4.8
	c-0.2-3.8-2-7.1-3.4-10.6c-0.7-1.8-0.8-4.4-1.9-5.9c-1.1-1.5-1.7-3.2-2-4.9c-0.6-4-0.2-8.4,0-12.4c0.5-8.7,1.9-17.5,3.5-26
	c0.5-2.5,1-5,1.5-7.5c0.3-1.3,0.3-5.1,2-4.2V86.2C155.2,84.7,147.6,81.4,140.8,77.7z"/>
<path class="st0" d="M57.8,474.2c-0.9,3.8-3.3,6.5-5.7,9.6c-2.2,2.9-4.8,4.5-7.6,6.7c-1.4,1.1-1.9,2.7-1.8,4.5c0,1,3.1,1.9,3.7,2.2
	c1.7,0.7,3.4,1.6,5.1,2.2c1.4,0.5,2.6-0.4,4,0.4c1.6,0.9,2.3,2,4.3,1.7c1.5-0.3,2.9-1,4.1-2c1.8-1.5,2.5-4.8,4.8-5.6
	c3.4-1.3,3.5-6.5,3.8-9.6c0.4-4,1.7-7.5,2.9-11.3c0.1,0.1,0.3,0.1,0.4,0.2c-0.7-2.4-0.9-4.8-0.9-7.2H59.3
	C58.9,468.7,58.5,471.5,57.8,474.2z"/>
<path class="st0" d="M168.2,472.2c0.1,1.8,1.3,3.5,2,5.1c1.5,3.7,1.3,7.3,1.9,11.2c0.3,1.6,0.8,4.5,2.2,5.5c1,0.7,2.2,1.3,3.1,2.3
	c0.8,1,0.7,2.1,1.5,3c1.1,1.3,2.7,1.9,4.3,2.5c1.9,0.7,2.6,1.4,4.4,0.2c1.5-1,2.3-1.5,4.2-1.6c2.6,0,8.1-1.3,9.7-3.5
	c2.6-3.6-2.1-5.3-4.4-7.2c-2.8-2.3-5-5.2-7.1-8.1c-2.6-3.6-4.1-6.4-4.7-10.9c-0.2-1.6-0.3-3.2-0.4-4.8h-15.6c0,0,0,0,0,0
	C169.3,468.1,168,469.9,168.2,472.2z"/>
<path class="st0" d="M136.5,69.8c0-3.8-0.1-7.6,1.1-11.2c0.7-2,1.7-3.7,2.4-5.7c0.5-1.6,1.1-3.2,2.2-4.5c2.4-2.8,3.9-5.1,4.3-8.9
	c0.1-1.2,0.1-2.3,0.1-3.5c0-1.2,0.4-1.7-0.9-1.8c-1.3-0.1-1.5-1.2-1.6-2.3c-0.2-3.9,0.4-7.7,0-11.6c-0.3-2.4-1.2-4.4-2-6.6
	c-0.6-1.6-0.9-3.9-1.9-5.2c-2.1-2.8-6.5-5.6-9.7-6.8c-3.7-1.3-8-2.2-11.8-1.2c-3.3,0.8-7.3,2-10.2,3.9c-6.1,4.1-7.9,13.1-8.1,19.9
	c-0.1,2.5,0,5,0.1,7.6c0,1.1,0.6,2.1-0.7,2.3c-1.1,0.1-1.3-0.2-1.4,1.1c-0.3,3.3,0,6.8,1.2,9.9c0.6,1.4,1.4,2.9,2.6,3.8
	c1.5,1.2,2.1,0.6,2.2,2.7c0.1,1.8,1.2,2.9,1.8,4.6c0.6,1.6,0.8,3.3,1,5c0.2,2,0.8,3.9,1.1,5.8c0.3,1.8-0.3,3.6-0.8,5.3
	c-0.2,0.6-0.4,1.1-0.6,1.7h30.7C136.8,72.7,136.5,71.3,136.5,69.8z"/>
<path class="st0" d="M79.1,87c-3.8,1.5-6.3,4.5-8.7,7.6c-1.6,2.1-3.4,6.2-3.4,8.9c0,1.9-1,3.7-1.6,5.5c-0.6,1.9-0.9,3.9-1.3,5.9
	c-0.7,4.2-1.4,8.3-2.1,12.4c-0.9,4.5-2.1,8.6-3.8,12.9c-1.3,3.3-3.1,6.5-4.3,9.9c-1.4,4.1-2.5,8.2-4.1,12.2c-1.4,3.6-2.5,7.5-4.3,11
	c-2,3.9-4.3,7.6-5.8,11.7c-1.4,3.6-2.1,7.5-3.1,11.2c-2.3,8.4-3.8,17.1-6.6,25.3c-1.3,3.7-2.5,7.9-4.5,11.4
	c-0.1,0.2-0.2,0.3-0.3,0.5H40v0.5c2.5-5.5,5.8-10.5,8.9-15.7c3.9-6.6,6.8-13.7,9.7-20.7c1.4-3.4,3.1-6.7,4.4-10.2
	c1.2-3.4,1.8-6.9,2.8-10.3c1-3.5,2-7,3.1-10.5c1.1-3.5,3.1-6.5,4.5-9.8c1.4-3.5,3.2-7,4-10.7c0.7-2.9,2.2-5.8,4.2-8V86.4
	C80.7,86.5,79.9,86.7,79.1,87z"/>
<path class="st0" d="M16.3,238.8c-1.7,0.8-3.9,1.6-5.3,3c-1.3,1.3-2.4,2.7-3.6,4.1c-2.2,2.5-5.2,6.4-4.8,7.6
	c2.2,2.2,3.3-0.3,5.2-1.6c1.1-0.7,2-3.2,4.8-3.3c1.8-0.1-0.3,4.1-0.7,5.2c-1.6,4.3-2.7,8.9-4.3,13.2c-0.7,2-1.8,3.6-2,5.8
	c-0.2,2.1-2.1,5.2,0.3,6.2c4.4-2.8,5.8-12.2,9-15.8c-0.4,3.8-2.7,11.5-4,15.1c-0.9,2.5-1.9,6.5,1.1,6.5c3.3,0,7.6-19.1,8.1-20.5
	c1.4,0.2-0.1,4.6-0.2,5.8c0,0.9-0.1,1.8-0.4,2.7c-0.5,1.6-1.2,5.4-2,6.9c-1.1,2,2.7,3.7,3.7,1.4c2.7-6.5,3.2-9.7,5.6-16.1
	c0.7,1.8,0.3,2.5,0.1,4.4c-0.2,1.7-0.3,3.6-1.3,6.8c-0.9,2.9,1,5.3,2.9,2.1c1.5-2.6,2.2-6,2.8-9.3c0.6-3.4,2-6.4,2.4-9.9
	c0.9-7.1,2.5-15,4.9-21.7c0.4-1.2,0.9-2.3,1.4-3.5v-0.5H25.2C23.3,236.1,19.1,237.5,16.3,238.8z"/>
<path class="st0" d="M166.6,147c0.7,1.7,2.1,3.1,2.7,5c0.6,1.6,1,3.2,1.5,4.8c1.3,3.6,3.1,7,4.5,10.6c3,7.6,4.2,15.6,6.6,23.4
	c1.3,4.2,4,8.3,6,12.2c1.8,3.5,3.3,7.2,4.9,10.8c3.2,6.9,8.3,12.6,11.2,19.7h15.7c0,0,0,0,0,0c-3.4-4.4-4.5-10.5-6.4-15.6
	c-1.3-3.6-1.6-7.4-2.8-11c-1.1-3.4-1.9-6.6-2.4-10.1c-1.2-8.3-5.4-15.8-9.1-23.3c-3.8-7.8-6.8-15.9-9.7-24
	c-1.5-4.4-3.2-8.8-4.3-13.3c-1-4-3-7.4-3.5-11.6c-0.5-4.3-0.5-8.3-2-12.3c-1.4-3.7-1.7-7.6-2.9-11.3c-1.9-6.3-5.7-13.2-12.7-14.4
	c-0.4-0.1-0.9-0.2-1.3-0.3v51.7c0.1,0.1,0.2,0.1,0.4,0.2C165.7,140.2,165.6,144.2,166.6,147z"/>
<path class="st0" d="M204.8,235.4c0.6,1.9,2.1,3.3,2.7,5.2c0.7,1.8,0.6,4,1.1,5.9c0.9,4.1,2.5,8,3.2,12.2c0.8,4.2,0.5,8.3,2,12.4
	c0.6,1.7,1.2,3.3,1.7,5c0.4,1.4,0.5,2.7,2.2,3.2c1.6,0.4,1.9-2.3,1.8-3.2c-0.1-1.5-0.6-1.2-1.1-4.1c-0.7-3.7-0.9-4.7-0.8-7.7
	c1.1-0.9,1.7,1.1,2.2,3.9c0.5,3.5,1.7,6.7,2.8,10c0.4,1.2,0.8,3.5,1.9,4.3c1.2,1,2.6,1.4,2.4-0.7c-0.4-3.7-3.1-12.4-2.8-16
	c1.4-0.1,2.5,4,3.1,6c0.3,1.1,0.9,3.1,1.3,4.1c0.8,1.9,0.8,3.9,1.6,5.7c0.7,1.7,2,2.8,3.6,1.9c0.6-1.8,0.2-3.6-0.2-5.8
	c-0.5-2.5-0.9-2.1-2.3-7.1c-0.4-1.3-2.2-5-0.9-7.1c0.7-0.1,0.9,0.7,3,6.6c0.2,0.7,3.3,8.1,4.1,8.1c1.7,0.1,2.2-0.9,2.2-2.2
	c0.1-2.1-0.7-3.5-1.3-5.4c-1.5-4.6-2.7-8.1-4-12.4c-0.8-2.5-1.6-5-2.3-7.5c-0.4-1.2-1.1-2,0.5-2.4c0.4-0.1,0.8,0,1.1,0.3
	c1.2,1.2,2.6,3.1,4.3,3.9c2.2,1,2.3,2.2,4.5,2c1.3-1-0.2-4.8-2-6c-2.5-1.8-3.3-4-5.1-6.2c-1.9-2.4-6.3-3.7-9.1-4.8
	c-2.5-1-4.6-2.2-6.3-4.3h-15.7C204.4,234.1,204.6,234.7,204.8,235.4z"/>
<path class="st0" d="M67.4,290.9c0,9.2-0.1,18.4-0.1,27.6s0,18.4-0.1,27.6c0,4.6,0.2,9.3-0.5,13.9c-0.6,3.8-1.4,7-2.7,10.6
	c-1.5,4.1-2.3,8-2.8,12.4c-0.4,3.9-0.2,8-1.1,11.9c-1.8,8.5-2,17-1.8,25.7c0.4,15,2.6,30.3,0.8,45.3h15.7c0-3.5,0.5-7,1.1-10.6
	c0.5-3,0.8-6.1,1.9-9c0.9-2.4,1.9-4.5,2.4-7c1-5.7,3-10.9,4.5-16.5c1.5-5.6,2.9-11.2,4.1-16.9c1.9-8.8,1.5-17.7,1.5-26.6
	c0-2-0.4-4.5,0.2-6.4c0.7-2,1.3-4,2-6c1.4-3.9,2-8,3.4-11.9c1.5-4.3,2.3-8.5,2.9-13c0.6-4,1.8-7.9,2.3-11.9
	c0.9-8.5,0.7-17.2,2.9-25.5c1.1-4.3,2.2-8.7,3.5-13c1.2-3.9,3.2-7.5,4.5-11.3c1.4-4.1,2.4-8.5,3.2-12.8c0.3-1.6,0.3-3.4,0.6-5
	c0.2-0.8,0.7-1.4,1.3-2H68.5c-0.1,1-0.3,2-0.4,3C66.9,272.6,67.4,281.8,67.4,290.9z"/>
<path class="st0" d="M129.1,268.4c1,8.5,5.2,15.7,7.5,23.9c0.6,2.1,1,4.3,1.9,6.3c0.8,1.8,1.5,3.5,1.9,5.5c0.7,4.1,0.7,8.3,1.4,12.4
	c0.4,2.4,1.2,4.7,1.4,7.1c0.2,2.1,0.3,4.1,0.6,6.2c0.6,4.2,1.1,8.5,1.8,12.7c0.7,4.4,2.3,8.7,2.9,13.2c0.6,3.9,2.3,7,3.3,10.6
	c1.2,4.2,2.2,8.1,2.3,12.5c0.1,4.4,0.1,8.9,0.1,13.3c0,4.3-0.5,8.8,0.7,12.9c1.1,3.8,2.1,7.6,2.9,11.5c1.7,8.1,4.3,16,6.4,24
	c1.2,4.5,2.2,9,3.1,13.6c0.4,2.1,0.8,4.1,1.1,6.2c0.2,1.9,1.2,3.6,1.1,5.6H185c-0.1-2.7,0-5.5,0-8.2c0.1-9.2,0.4-18.4,0.6-27.7
	c0.2-9.2-0.6-18.2-0.9-27.4c-0.1-4.6-1.2-9-1.6-13.6c-0.4-4.1-0.5-8.1-1.4-12.1c-0.4-2.1-0.8-4.4-1.6-6.4c-0.6-1.5-1.6-3-1.9-4.7
	c-0.6-4-0.9-8.1-1-12.1c-0.1-18.5,0-37-0.1-55.5c-0.1-9,0.2-18.1,0-27.2c-0.1-3.6-0.6-7-1.2-10.4h-49.1
	C129.1,262.5,128.7,265.6,129.1,268.4z"/>
</svg>
