<?xml version="1.0" encoding="utf-8"?>
<!-- Generator: Adobe Illustrator 19.2.1, SVG Export Plug-In . SVG Version: 6.00 Build 0)  -->
<svg version="1.1" id="Layer_1" xmlns="http://www.w3.org/2000/svg" xmlns:xlink="http://www.w3.org/1999/xlink" x="0px" y="0px"
	 viewBox="0 0 223 314" style="enable-background:new 0 0 223 314;" xml:space="preserve">
<style type="text/css">
	.st0{fill:#CECECE;}
</style>
<path class="st0" d="M116-1c8.5,2.5,16.6,5.6,23,12.2c17.3,17.7,15,46.5-4.6,61.6c-9.6,7.5-20.3,7.1-31.3,6.8
	c-0.8,0-1.6-0.4-2.5-0.4c-4.8,0.1-8.6-1.6-12.7-4.7c-14.7-10.9-21.5-25-17.7-43c3.6-17.2,14.7-27.9,32.1-31.7
	c0.6-0.1,1.2-0.6,1.7-0.9C108-1,112-1,116-1z"/>
<path class="st0" d="M72,313c-2.9-0.3-5.8-0.8-8.8-0.9c-12.3-0.2-24.6-0.3-36.9-0.4c-1.8,0-3.6-0.2-5.3-0.3
	c-3.9-13.5,5.6-27.4,21-30.1c5.2-0.9,10.8-0.5,16.2-0.1c13.3,0.8,26.5,2,39.7,3c1.1,0.1,2.3,0.4,3.7,0.7c-0.9,9.4-1.8,18.8-2.7,28.1
	C90,313,81,313,72,313z"/>
<path class="st0" d="M123,313c-1.1-9-2.2-18.1-3.4-27.9c6.3-0.7,12.1-1.4,18-2.1c10.2-1.2,20.4-2.2,30.5-3.8
	c18.5-3,34.9,12.6,32.3,31.5c-1.8,0.1-3.7,0.2-5.7,0.3c-17,0.4-33.9,0.7-50.9,1.2c-2,0.1-3.9,0.5-5.8,0.8C133,313,128,313,123,313z"
	/>
<path class="st0" d="M222,178c-0.8,0.8-2.3,1.7-2.2,2.4c0.5,6.7-5.6,9.4-8.6,14c-0.4,0.7-3.8,0.2-5.2-0.7c-2.3-1.5-4.2-3.7-6.4-5.8
	c-0.6,1.3-0.9,2.6-1.7,3.3c-1.3,1.1-3.1,2.7-4.3,2.5c-1.6-0.3-3.8-2.2-3.9-3.6c-0.6-6.2-2.8-12.8,4.3-17.6
	c4.7-3.2,8.6-7.8,13.2-12.1c5.1,4.7,10,9.2,14.9,13.7C222,175.3,222,176.7,222,178z"/>
<path class="st0" d="M-1,177c0.8-1.1,1.5-2.2,2.4-3.2c7-8.3,10.1-8.8,18.8-2.7c4.2,2.9,8.4,5.9,12.5,8.8c-0.2,2.6-0.6,5-0.6,7.4
	c0,3.5,0.8,7.9-3.6,8.6c-2.3,0.4-5.1-2.3-7.7-3.6c0.1-0.5,0.3-0.9,0.4-1.4c-2.1,1.9-3.9,4.2-6.2,5.6c-1.4,0.8-4.4,0.8-5.5-0.1
	c-2.9-2.5-5.3-5.8-7.7-8.8c-0.5-0.7-0.2-1.9-0.6-2.8c-0.6-1.3-1.4-2.5-2.1-3.7C-1,179.7-1,178.3-1,177z"/>
<path class="st0" d="M66,166c-0.9-22.9-1.7-45.8-2.8-68.7c-0.2-3.9,0.8-6.9,4.1-8.9c7.2-4.6,14.9-7.2,23.6-5.4
	c12.2,2.4,24.4,2.8,36.6-0.3c7.6-1.9,14.8-0.6,21.9,2.5c2.9,1.3,4.3,3.2,4.5,6.4c1,16.5,2.2,32.9,3,49.4c0.6,12.6,0.6,25.1,1.1,37.7
	c0.1,3.2-0.7,5.2-3.5,6.9c-13.6,8.5-27,17-40.4,25.8c-3.4,2.2-5.8,2.1-9.2-0.3c-12-8.4-24.1-16.6-36.4-24.7c-2.9-1.9-4-3.9-3.8-7.3
	c0.3-4.3,0.1-8.7,0.1-13C65.3,166.1,65.7,166.1,66,166z"/>
<path class="st0" d="M159.2,188.2c2.2,29.7,4.3,58.4,6.5,87.8c-4.8,0.6-9.9,1.3-14.9,1.9c-9.3,1-18.5,1.8-27.8,2.8
	c-2.5,0.3-3.6-0.3-3.9-3c-2.2-17.6-4.5-35.3-6.9-52.9c-0.6-4.4,0.5-7.2,4.6-9.7C130.7,206.6,144.3,197.7,159.2,188.2z"/>
<path class="st0" d="M64,188.9c8,5.4,15.3,10.3,22.6,15.2c6.5,4.4,13,8.6,19.3,13.3c1.5,1.1,2.7,3.8,2.6,5.6
	c-1.6,16.9-3.6,33.7-5.5,50.5c-0.2,2.1-0.7,4.2-1.2,7c-15.6-1.2-30.9-2.4-46.4-3.6C58.2,247.6,61,218.8,64,188.9z"/>
<path class="st0" d="M204.2,155.9c-6.6,6.2-12.8,12.1-20.1,19c-7.2-7.6-14.2-14.8-21-22.2c-1-1.1-1.6-3-1.8-4.5
	c-1.2-17.9-2.3-35.9-3.4-53.8c0-0.4,0.3-0.9,0.9-2.7C174.2,113.4,189,134.4,204.2,155.9z"/>
<path class="st0" d="M15,161.4c14.5-20.7,28.6-41,43.7-62.5c0.5,4.8,0.9,8,1.1,11.2c0.7,12.9,1.2,25.9,1.9,38.9
	c0.1,2.4-0.6,3.8-2.5,5.6c-6.6,6-12.9,12.5-19.1,19c-2.5,2.6-4.3,2.7-7.1,0.6C27.4,169.7,21.4,165.8,15,161.4z"/>
</svg>
