<?xml version="1.0" encoding="utf-8"?>
<!-- Generator: Adobe Illustrator 19.2.1, SVG Export Plug-In . SVG Version: 6.00 Build 0)  -->
<svg version="1.1" id="Layer_1" xmlns="http://www.w3.org/2000/svg" xmlns:xlink="http://www.w3.org/1999/xlink" x="0px" y="0px"
	 viewBox="0 0 130 185.7" style="enable-background:new 0 0 130 185.7;" xml:space="preserve">
<style type="text/css">
	.st0{fill:#CECECE;}
	.st1{fill:none;stroke:#000000;stroke-miterlimit:10;}
</style>
<path id="leftleg" class="st0" d="M44.3,111.1c0-1.2,0.9-5.7,1.7-5.6c2.3,0.3,9.1,3.2,11.3,4c1.5,0.6,3.3,1.3,3.9,2
	c1,0,0.9,3.9,0.9,3.9c-0.1,2.7-4.1,15.8-4.2,16.8c-0.6,9.1-0.2,12.8-2.5,22c-0.8,1.6-1.7,2.2-3.2,2.1c-1,0,2.1,0-1.9-0.2
	c-4.4-0.2-6.6-0.4-6.5-1.6C45,138.8,43.2,127.3,44.3,111.1z"/>
<path id="leftleg_1_" class="st0" d="M88.1,111.1c0-1.2-1-5.7-1.8-5.6c-2.4,0.3-9.6,3.2-12,4c-1.6,0.6-3.4,1.3-4.2,2
	c-1,0-0.9,3.9-0.9,3.9c0.1,2.7,4.3,15.8,4.4,16.8c0.6,9.1,0.2,12.8,2.6,22c0.8,1.6,1.8,2.2,3.3,2.1c1.1,0-2.2,0,2-0.2
	c4.7-0.2,7-0.4,6.8-1.6C87.4,138.8,89.2,127.3,88.1,111.1z"/>
<path id="leftarm" class="st0" d="M24.5,87.3c2.4-4.6,4.3-8.9,6.2-13.1C33.4,68,36,61.9,39.5,55c3.7-8.1,5-8.7,5.8-8.2
	c0.4,0.3,0.2,2.4,0.2,3.4c-0.1,2.8,0.9,6.3,1.1,7.3c1.7,7.7,1.2,7.1-0.4,9.1c-2.8,3.5-0.7,0.3-6.1,7.1c-2.5,3.1-4.9,17.7-6,19.7
	c-1.4,2.6-3.4-0.4-9.3,0.3C23.5,93.8,23.2,90,24.5,87.3z"/>
<path id="leftarm_1_" class="st0" d="M107.4,87.4c-2.3-4.6-4.3-8.9-6.2-13.1c-2.7-6.2-5.3-12.3-8.9-19.2c-3.7-8.1-5-8.7-5.8-8.2
	c-0.4,0.3-0.2,2.4-0.2,3.4c0.1,2.8-0.9,6.3-1.1,7.3c-1.7,7.7-1.2,7.1,0.4,9.1c2.8,3.5,0.7,0.3,6.1,7.1c2.5,3.1,4.9,17.7,6,19.7
	c1.4,2.6,3.4-0.4,9.3,0.3C108.3,93.9,108.6,90.1,107.4,87.4z"/>
<path id="lefthand" class="st0" d="M31.4,95.2c-0.3,1.1-0.2,2.2,0.1,3.3c0.2,0.7,0.4,1.5,0.7,2.2c0.3,1.1,0.6,2.2,0.6,3.3
	c0,0,0,0,0,0.1c-0.4-0.1-0.8,0.1-1.1,0.2c-0.4,0.1-0.9,0.3-1.3,0.5c-0.2,0.1-0.4,0.2-0.6,0.3c-0.1,0.1-0.2,0.2-0.4,0.4l-0.1,0.1
	c-0.7,0.6-1.3,1.3-1.6,2.2c-0.2,0.5-0.4,1.1-0.6,1.6c0,0.1-0.1,0.1-0.1,0.2c-0.9-0.9-2.6-1-3.5-0.2c-0.1-0.4-0.4-0.5-0.6-0.7
	c-0.4-0.2-0.9-0.3-1.4-0.3c-0.2,0-0.3,0.1-0.5,0.1c-0.1,0-0.1,0.1-0.2,0.1c0.2-0.7-0.1-1.2-0.3-1.8c-0.3-0.6-0.9-0.8-1.5-1.1
	c0-0.6-0.3-1.2-0.6-1.7c-0.1-0.1-0.1-0.2-0.2-0.2c-0.2-0.2-0.5-0.3-0.8-0.4c-0.1,0-0.2,0-0.2,0c-0.1,0-0.2,0-0.4,0.1
	c0.1-0.1,0.1-0.2,0.2-0.2c0.6-0.7,1.1-1.5,1.5-2.3c0.8-1.3,1.6-2.6,2.7-3.7c0.4-0.5,0.9-0.9,1.3-1.3c0.6-0.6,1-1,1.3-1.8
	c0.1-0.2,3.9,0,6.5,0.3c0.2,0.1,1.1,0.2,1.2,0.4C31.6,94.8,31.3,95.1,31.4,95.2z"/>
<path id="indexfinger" class="st0" d="M22.9,118.5c-0.1,0-0.2,0-0.3,0.1c-0.6,0.1-1.1-0.3-1.1-1c0-0.8,0.2-1.6,0.4-2.4
	c0.6-1.8,1.1-3.5,1.7-5.3c0.1-0.2,0.2-0.4,0.4-0.5c0.5-0.3,1-0.4,1.5-0.3s0.9,0.3,1.3,0.5l0.1,0.1c0.1,0.1,0.1,0.2,0.1,0.3
	c-0.5,1.6-1,3.2-1.6,4.7c-0.2,0.7-0.5,1.4-0.8,2.1c-0.3,0.6-0.7,1-1.2,1.4l0,0C23.2,118.4,23,118.5,22.9,118.5z"/>
<path id="pinky" class="st0" d="M12.1,109.3c0-0.3,0.1-0.5,0.2-0.8c0.5-1,1.2-1.9,2-2.7c0.7-0.7,1.3-1.3,2-2
	c0.3-0.3,0.7-0.4,1.1-0.2c0.2,0.1,0.5,0.2,0.6,0.3c0.1,0.1,0.3,0.3,0.3,0.5c0.1,0.2,0.2,0.5,0.3,0.8c0.1,0.2,0.1,0.4-0.1,0.6
	c-0.5,0.5-1,1-1.6,1.6c-0.7,0.7-1.4,1.4-2.1,2.1c-0.3,0.3-0.7,0.6-1.2,0.7c-0.6,0.1-1.1-0.1-1.6-0.6
	C12.2,109.4,12.2,109.4,12.1,109.3z"/>
<path id="middlefinger" class="st0" d="M20.9,108.8c0.5-0.3,1-0.1,1.5,0c0.2,0.1,0.5,0.2,0.7,0.4c0.2,0.1,0.2,0.3,0.3,0.4v0.1
	c-0.8,1.9-1.7,3.6-2.7,5.4c-0.3,0.6-0.6,1.2-0.9,1.8c-0.2,0.4-0.5,0.7-0.8,0.9c-0.5,0.3-1,0.2-1.4-0.2c-0.4-0.4-0.5-0.8-0.4-1.3
	c0.1-0.4,0.3-0.9,0.5-1.3c0.8-1.6,1.5-3.2,2.3-4.9c0.1-0.3,0.2-0.6,0.4-0.8C20.4,109.1,20.6,108.9,20.9,108.8z"/>
<path id="ringfinger" class="st0" d="M14.5,114.5c-0.2-0.5-0.2-1.1,0-1.6c0.2-0.4,0.4-0.9,0.6-1.3c0.6-1.1,1.2-2.2,1.9-3.3
	c0.4-0.6,0.8-1.1,1.2-1.7c0.1-0.1,0.1-0.2,0.2-0.3c0.2-0.3,0.5-0.3,0.8-0.1c0.3,0.2,0.5,0.4,0.7,0.6c0.1,0.1,0.1,0.2,0.2,0.3
	c0.1,0.3,0.2,0.5,0.3,0.8c0.1,0.2,0.1,0.5-0.1,0.7c-0.4,0.6-0.8,1.2-1.1,1.7c-0.8,1.2-1.5,2.5-2.2,3.8c-0.2,0.4-0.5,0.7-0.9,1
	C15.5,115.4,14.8,115.2,14.5,114.5z"/>
<path id="thumb" class="st0" d="M29.9,110.8c-0.2-0.5-0.3-1.1-0.3-1.6c0-0.7,0.1-1.5,0.1-2.2c0-0.3-0.1-0.7-0.1-1
	c0-0.1,0-0.2,0.1-0.3c0.1-0.2,0.3-0.3,0.5-0.4c0.5-0.3,0.9-0.4,1.4-0.6c0.3-0.1,0.5-0.2,0.8-0.2c0.2,0,0.3-0.1,0.4,0
	c0.1,0.1,0.2,0.3,0.2,0.4c0,0.6,0,1.3,0,1.9c0,1.3,0.1,2.6,0.4,3.9c0.1,0.3,0.1,0.5,0.2,0.8c0.1,0.7-0.4,1.5-1.1,1.5
	c-0.3,0-0.5,0-0.7-0.2c-0.5-0.2-0.9-0.6-1.2-1.1C30.2,111.5,30,111.2,29.9,110.8z"/>
<path id="righthand" class="st0" d="M101.4,107.5c0,0.8,0.1,1.6,0.1,2.4c0.1,1.4-0.7,2.5-1.7,3.4c0,0-0.1,0.1-0.2,0.1
	c-0.5,0.3-1,0.5-1.5,0.1s-0.7-0.9-0.6-1.5c0.4-1.7,0.5-3.4,0.5-5.2c-0.1-1.9,0.2-3.8,0.8-5.6c0.5-1.7,1-3.6,0.6-5.4
	c0-0.1-0.1-0.8,0.1-0.9c1.8-0.7,7.3-0.6,7.6-0.7c0.3-0.1,0.8,1.8,1.9,2.8c1.6,1.5,2.8,3.3,3.9,5.2c0.6,1,1.3,1.9,2.1,2.6
	c0.9,0.8,1.7,1.6,2.4,2.5c0.5,0.6,0.9,1.2,1.3,1.9c0.3,0.5,0,1-0.5,1.2c-0.8,0.4-1.6,0.2-2.3-0.5c-0.9-0.9-1.9-1.9-2.8-2.8
	c-0.2-0.2-0.4-0.4-0.7-0.6c0,0.2,0.1,0.3,0.2,0.5c1.5,1.8,2.5,3.8,3.6,5.8c0.3,0.6,0.5,1.3,0.4,2c-0.3,1-1.1,1.3-1.9,0.6
	c-0.3-0.2-0.5-0.5-0.7-0.8c-0.4-0.7-0.8-1.4-1.3-2.1c-0.6-1-1.2-1.9-1.8-2.9c0,0-0.1,0-0.1,0.1s0,0.1,0.1,0.2c1,2,2,4.1,2.9,6.1
	c0.2,0.3,0.3,0.7,0.3,1.1c0.1,0.6-0.3,1.2-0.8,1.4c-0.5,0.2-0.9,0.1-1.4-0.3c-0.2-0.2-0.4-0.4-0.5-0.6c-0.9-1.7-1.8-3.5-2.7-5.2
	c-0.4-0.7-0.7-1.4-1-2.1c-0.1,0-0.1,0-0.2,0.1c0.1,0.4,0.3,0.9,0.4,1.3c0.5,1.6,1.1,3.2,1.6,4.9c0.2,0.6,0.2,1.2,0.2,1.8
	c0,0.6-0.5,1-1.1,1c-0.3,0-0.6-0.2-0.9-0.3c-0.9-0.6-1.3-1.5-1.6-2.5c-0.5-1.3-0.9-2.6-1.3-4c-0.4-1.3-0.9-2.6-1.3-3.9
	c-0.3-0.9-0.8-1.6-1.7-2.2C101.4,106.9,101.4,107.2,101.4,107.5z"/>
<path id="leftear" class="st0" d="M51.7,25.9c0-0.3,0-0.6,0-0.9s0.1-0.5,0.2-0.8c0.2-0.4,0.5-0.7,1-0.6c0.4,0,0.8,0.3,0.9,0.8
	c0.4,1.6,0.7,3.2,1.1,4.7c0.1,0.3,0.2,0.6,0.3,0.9c0.2,0.4,0,0.6-0.4,0.6c-0.3,0-0.6-0.1-0.8-0.3c-0.4-0.5-0.9-1.1-1.3-1.7
	c-0.3-0.6-0.6-1.2-0.8-1.8c0,0,0-0.1-0.1-0.1C51.8,26.4,51.7,26.2,51.7,25.9z"/>
<path id="leftear_1_" class="st0" d="M81.5,26c0-0.3,0-0.6,0-0.9s-0.1-0.5-0.2-0.8c-0.1-0.4-0.5-0.7-1-0.7c-0.4,0-0.8,0.3-0.9,0.7
	c-0.4,1.6-0.9,3.1-1.3,4.7c-0.1,0.3-0.2,0.6-0.3,0.9c-0.2,0.4-0.1,0.6,0.3,0.6c0.3,0,0.6-0.1,0.8-0.3c0.5-0.5,1-1.1,1.4-1.6
	s0.6-1.2,0.9-1.7l0.1-0.1C81.4,26.5,81.4,26.3,81.5,26z"/>
<path id="rightfoot" class="st0" d="M77.7,157.3c1.7-0.2,1.4-0.2,2.8-0.2c2.7-0.1,3.6-0.2,5.1-0.3c0.5,0,2.3-0.4,2.6,0.1
	c1.1,1.8-0.3,3.1,1.5,5.9c0.5,1.1,1.7,1.9,2.7,2.7c3.2,2.6,6.5,5.3,10.5,6.8c1.3,0.5,2.7,1.1,3.8,2c0.9,0.8,1.5,2.1,1.8,3.2
	c0.3,1.3-2,3-3.7,2.8c-3.6-0.4-7.1-0.8-10.6-1.6c-5.5-1.2-11-2.6-16.5-3.9c-0.9-0.2-1.3-0.6-1.2-1.5c0.3-3.1,0.7-6.2,0.9-9.3
	c0.3-1.8,0.2-3.5-0.1-5.3C77,158.2,77.3,157.4,77.7,157.3z"/>
<path id="leftfoot" class="st0" d="M43.3,156.6c0-0.3,2.1,0.2,4.9,0.3c5.5,0.1,6.3-0.3,6.2,1.3c0,1.2-1.1,4.4,0.7,11.5
	c0.3,1.3,0.1,2.7,0,4.1c0,0.4-0.7,0.9-1.1,1c-2.9,0.7-5.8,1.3-8.7,2c-3.4,0.8-6.7,1.6-10.1,2.4c-1.2,0.3-2,0.1-2.1-1.4
	c-0.1-1.1-0.9-1.7-2-1.5c-2.1,0.3-4,0.4-5.8,1.8c-0.2,0.2-0.6,0.4-1.5,0.3c-0.8-0.1-0.8-1.7-0.6-2.2c0.8-1.1,1.8-2.2,2.9-2.9
	c2.2-1.3,4.7-2,6.8-3.4c2.4-1.5,4.3-3.8,6.7-5.3C42.8,162.9,42.5,156.6,43.3,156.6z"/>
<path id="bigtoe" class="st0" d="M32.9,178.5c-0.5,1.2-0.8,1.3-1.4,1.5c-1.5,0.4-3,0.7-4.6,0.8c-0.5,0-1.4-0.4-1.5-0.8
	c-0.2-0.4,0.1-1.6,0.5-1.8c1.8-1,5.4-1.6,6-1.3C32.1,177,32.9,177.5,32.9,178.5z"/>
<path class="st0" d="M80.3,14.7c-0.6-3.1-2.1-5.8-3.7-8.5s-3.5-4.3-6.4-4.8c-6.2-1.2-10.8,2-15,5.9c-2,1.8-1.8,4.4-2.5,6.7
	c-1,3.4-0.2,6.4,1.2,9.3c0.2,0.3,0.6,0.5,1,0.8c0.1,1.1,0.2,2.1,0.2,2c0.2,0.6,0.4,1.8,0.5,2.3c0.6,2.5,0.7,4.2,2.1,6.5
	c0.3,0.5,1.5,1.9,1.8,2.4c1.1,1.8,0.6,3.4,0,4.7c-0.4,1-1,1.4-1.9,2c-0.5,0.4-0.5,0.2-0.9,0.8c-0.8,1,1.4,1,1.9,1
	c0.8,0,2.3,0.3,3.2,0.3c1.4,0,2.1,0.2,3.4,0.2c2.4,0,3.9-0.2,6.2-0.2c1.1,0,2-0.5,3-0.6s1.3-0.8,0.5-1.3c-0.7-0.5-1.1-1.3-1.4-2
	c-0.3-0.6-0.7-1.4-0.6-3.2s1.2-2.4,1.7-3.1c1-1.6,1.2-1.9,1.5-3c0.5-2.2,1.1-4.1,1.6-6c0.1,0.3,1.2-2.2,1.5-3.8
	c0.2-1.3,0.5-1,1.2-2.5C81.2,18.9,80.7,16.6,80.3,14.7z"/>
<path id="lefteye" class="st1" d="M61.8,23.1c0.1,0,0.2,0,0.3,0.1c0.7,0.2,1.3,0.6,1.8,1.1c0.1,0.1,0.1,0.2,0.2,0.3
	c0,0.1,0,0.2-0.1,0.3c-0.1,0.1-0.2,0.1-0.3,0s-0.1-0.1-0.2,0c-0.1,0.1-0.2,0.1-0.2,0.2c-1.4,0.7-2.8,0.6-4.1-0.3
	c-0.1-0.1-0.2-0.2-0.3-0.2l0,0l0.1-0.1c0.6-0.6,1.2-1,2-1.2c0.1,0,0.3-0.1,0.4-0.1C61.5,23.1,61.7,23.1,61.8,23.1z"/>
<path id="righteye" class="st1" d="M71.5,23.3c-0.1,0-0.2,0-0.3,0.1c-0.7,0.2-1.3,0.6-1.8,1.1c-0.1,0.1-0.1,0.2-0.2,0.3
	c0,0.1,0,0.2,0.1,0.3c0.1,0.1,0.2,0.1,0.3,0c0.1-0.1,0.1-0.1,0.2,0s0.2,0.1,0.2,0.2c1.4,0.7,2.8,0.6,4.1-0.3
	c0.1-0.1,0.2-0.2,0.3-0.2l0,0l-0.1-0.1c-0.6-0.6-1.2-1-2-1.2c-0.1,0-0.3-0.1-0.4-0.1C71.9,23.3,71.7,23.3,71.5,23.3z"/>
<g>
	<path class="st0" d="M83,91.4c-2.5-5.1-2.8-7.6-3.7-12.7c-0.3-2-1-5.3,0.7-7.9c3.8-5.8,3.9-11.1,5.3-18.2c0.5-2.5,1.2-5.8-1.9-6.5
		c-1.2-0.2-13.4,1-17.2,0.9c-0.1,0-0.2,0-0.4,0c-0.1,0-0.2,0-0.4,0c-3.8,0-16-1.2-17.2-0.8c-3.1,0.8-2.4,4.1-1.9,6.5
		c1.4,7.1,1.5,12.4,5.3,18.2c1.7,2.6,1.1,5.9,0.7,7.9c-0.9,5-1.2,7.6-3.7,12.7c-1.6,3.2-4.3,7.3-4.2,10.2c0.1,2.2,2.3,3.7,4.2,4
		c7.2,1.5,12.9,6.6,17.1,6.6s9.9-5.1,17.1-6.6c1.9-0.4,4.1-1.9,4.2-4C87.3,98.7,84.6,94.7,83,91.4z"/>
</g>
</svg>
