<?xml version="1.0" encoding="utf-8"?>
<!-- Generator: Adobe Illustrator 19.2.1, SVG Export Plug-In . SVG Version: 6.00 Build 0)  -->
<svg version="1.1" id="Layer_1" xmlns="http://www.w3.org/2000/svg" xmlns:xlink="http://www.w3.org/1999/xlink" x="0px" y="0px"
	 viewBox="0 0 223 314" style="enable-background:new 0 0 223 314;" xml:space="preserve">
<style type="text/css">
	.st0{fill:#CECECE;}
</style>
<path class="st0" d="M116,0.8c8.5,2.5,16.6,5.6,23,12.2c17.3,17.7,15,46.5-4.6,61.6c-9.6,7.5-20.3,7.1-31.3,6.8
	c-0.8,0-1.6-0.4-2.5-0.4c-4.8,0.1-8.6-1.6-12.7-4.7c-14.7-10.9-21.5-25-17.7-43c3.6-17.2,14.7-27.9,32.1-31.7
	c0.6-0.1,1.2-0.6,1.7-0.9C108,0.8,112,0.8,116,0.8z"/>
<path class="st0" d="M73,306c-2.9-0.3-5.8-0.8-8.8-0.9c-12.3-0.2-24.6-0.3-36.9-0.4c-1.8,0-3.6-0.2-5.3-0.3
	c-3.9-13.5,5.6-27.4,21-30.1c5.2-0.9,10.8-0.5,16.2-0.1c13.3,0.8,26.5,0.5,39.8,1.6c1.1,0.1,2.2,0.2,3.7,0.5
	c-0.9,9.4-1.8,20.5-2.7,29.8C91,306,82,306,73,306z"/>
<path class="st0" d="M151.2,306c2.9-0.3,5.8-0.8,8.8-0.9c12.3-0.2,24.6-0.3,36.9-0.4c1.8,0,3.6-0.2,5.3-0.3
	c3.9-13.5-5.6-27.4-21-30.1c-5.2-0.9-10.8-0.5-16.2-0.1c-13.3,0.8-26.5,0.5-39.8,1.6c-1.1,0.1-2.2,0.2-3.7,0.5
	c0.9,9.4,1.8,20.5,2.7,29.8C133.2,306,142.2,306,151.2,306z"/>
<path class="st0" d="M8.3,190.9c0.1-1.3,0.2-2.6,0.4-3.9c1.6-10.7,4-12.7,14.6-12.1c5.1,0.3,10.3,0.6,15.2,0.9
	c1.2,2.4,2.1,4.6,3.4,6.6c1.8,3,4.8,6.3,1.4,9.2c-1.8,1.5-5.6,0.7-8.4,0.9c-0.1-0.5-0.3-0.9-0.4-1.4c-0.8,2.7-1.1,5.6-2.4,8
	c-0.8,1.4-3.3,3-4.7,2.7c-3.8-0.6-7.5-2.1-11.2-3.5c-0.8-0.3-1.2-1.5-2-2.1c-1.2-0.8-2.5-1.4-3.7-2.1C9.7,193.1,9,192,8.3,190.9z"/>
<path class="st0" d="M64.3,94.8c-0.2-3.9,3.5-8,8.1-9.3c9.1-3,69.9-3.4,77-0.4c2.9,1.3,5.4,6.3,5.6,9.6c-0.5,16.8-0.8,30,0,46.4
	c1.3,15.8,2.5,24.9,3,37.5c0.1,3.2-0.7,5.2-3.5,6.9c-34.9,5.8-46.1,6.6-85.9,0.9c-3.4-0.5-4-3.9-3.8-7.3c0.3-4.3,0.1-8.7,0.1-13
	C65.3,166.1,65.4,117.7,64.3,94.8z"/>
<path class="st0" d="M65.3,191c0-2.3,1.8-3.3,3.8-3.1c8.1,0.8,29.1,3.2,37.2,4.6c2.1,0.3,2.3,2.9,2.3,2.9c0,3.9,0.1,21.2,0,23
	c-1.6,16.9-1.7,33.8-3.6,50.7c-0.2,2.1-0.3,2.2-0.8,4.9c-15.6-1.2-31.3-0.4-46.7-1.6C60.2,243.2,62.4,220.9,65.3,191z"/>
<path class="st0" d="M159.4,191c0-2.3-1.8-3.3-3.8-3.1c-8.1,0.8-29.1,3.2-37.2,4.6c-2.1,0.3-2.3,2.9-2.3,2.9c0,3.9-0.1,21.2,0,23
	c1.6,16.9,1.7,33.8,3.6,50.7c0.2,2.1,0.3,2.2,0.8,4.9c15.6-1.2,31.3-0.4,46.7-1.6C164.5,243.2,162.3,220.9,159.4,191z"/>
<path class="st0" d="M17.6,157.2c14.5-20.7,26.9-39.2,42-60.8c1.9-3.1,3.9-2.3,3.9-1.3c0.4,9.1,1.6,52.1-1.7,55.2
	c-6.6,6-13.3,11-19.1,19c-3.4,4.7-5.6,4.5-12,4c-2.5-0.2-2.5-0.2-14-0.7C14.4,172.6,14.6,165,17.6,157.2z"/>
<path class="st0" d="M201.8,157.2c-14.5-20.7-26.9-39.2-42-60.8c-1.9-3.1-3.9-2.3-3.9-1.3c-0.4,9.1-1.6,52.1,1.7,55.2
	c6.6,6,13.3,11,19.1,19c3.4,4.7,5.6,4.5,12,4c2.5-0.2,2.5-0.2,14-0.7C205,172.6,204.8,165,201.8,157.2z"/>
<path class="st0" d="M211.7,190.9c-0.1-1.3-0.2-2.6-0.4-3.9c-1.6-10.7-4-12.7-14.6-12.1c-5.1,0.3-10.3,0.6-15.2,0.9
	c-1.2,2.4-2.1,4.6-3.4,6.6c-1.8,3-4.8,6.3-1.4,9.2c1.8,1.5,5.6,0.7,8.4,0.9c0.1-0.5,0.3-0.9,0.4-1.4c0.8,2.7,1.1,5.6,2.4,8
	c0.8,1.4,3.3,3,4.7,2.7c3.8-0.6,7.5-2.1,11.2-3.5c0.8-0.3,1.2-1.5,2-2.1c1.2-0.8,2.5-1.4,3.7-2.1C210.4,193.1,211.1,192,211.7,190.9
	z"/>
</svg>
