<?xml version="1.0" encoding="utf-8"?>
<!-- Generator: Adobe Illustrator 19.2.1, SVG Export Plug-In . SVG Version: 6.00 Build 0)  -->
<svg version="1.1" id="Layer_1" xmlns="http://www.w3.org/2000/svg" xmlns:xlink="http://www.w3.org/1999/xlink" x="0px" y="0px"
	 viewBox="0 0 218.1 332.4" style="enable-background:new 0 0 218.1 332.4;" xml:space="preserve">
<style type="text/css">
	.st0{fill:#CECECE;}
</style>
<path id="torso" class="st0" d="M70.6,94.8c-0.2-3.9,3-8,6.8-9.3c7.6-3,58.6-3.4,64.5-0.4c2.4,1.3,4.5,6.3,4.7,9.6
	c-0.4,14.6-6.1,25.5-5.7,39.2c0.1,2-0.1,5.5,0,7.6c1.1,15.8,5.7,16.8,6.1,29.4c0.1,3.2,0.4,5.7-1.9,7.5
	c-21.6,3.4-26.4,11.1-35.2,11.1c-7.8,0-18.3-8-31.7-10.4c-7.3-1.3-4.5-9.8-3.2-14.5c2.1-7.5,3.5-14.9,3.5-22.7
	C78.4,126.9,71,106.3,70.6,94.8z"/>
<path id="leftleg" class="st0" d="M71.8,190c0-2.3,2-10.5,3.5-10.3c4.8,0.6,19,5.9,23.6,7.4c3.2,1.1,6.8,2.3,8.2,3.7
	c2,0,1.9,7.3,1.9,7.3c-0.2,4.9-2.2,29.1-2.4,30.8c-1.2,16.9-6.6,23.8-11.5,40.8c-1.6,3-3.6,4.1-6.6,4c-2.1,0,4.3,0.1-4-0.3
	c-9.2-0.4-13.9-0.8-13.5-2.9C73.3,241.2,69.6,219.9,71.8,190z"/>
<path id="leftleg_1_" class="st0" d="M149.7,270.5c0.4,2.2-4.2,2.5-13.5,2.9c-8.3,0.4-1.9,0.3-4,0.3c-2.9,0.1-5-1-6.6-4
	c-4.9-17-10.3-24-11.5-40.8c-0.1-1.8-2.2-25.9-2.4-30.8c0,0-0.2-7.3,1.9-7.3c1.4-1.4,5-2.7,8.2-3.7c4.7-1.5,18.8-6.8,23.6-7.4
	c1.5-0.2,3.5,8.1,3.5,10.3C151.2,219.9,147.5,241.2,149.7,270.5z"/>
<path id="leftarm" class="st0" d="M26.7,157c5.9-8.5,11-16.5,15.9-24.6c7.1-11.6,14-23.2,23-36c1.9-3.1,3.9-2.3,3.9-1.3
	c0.2,4,1.5,11.9,2.8,19.2c1.5,9.1,4.2,16.8,0.4,19.6c-2,2.3-4.4,4.2-17,16.1c-5.7,5.4-8.7,15.6-11.4,19.3c-3.4,4.7-6.1,4.2-12.4,3.7
	c-2.5-0.2,2.3,0.1-9.2-0.4C20.4,172.6,23.5,162,26.7,157z"/>
<path id="leftarm_1_" class="st0" d="M194.8,172.7c-11.5,0.5-6.7,0.2-9.2,0.4c-6.3,0.5-9,1-12.4-3.7c-2.7-3.7-5.6-13.9-11.4-19.3
	c-12.6-11.9-15-13.8-17-16.1c-3.8-2.8-1.1-10.5,0.4-19.6c1.2-7.3,2.6-15.1,2.8-19.2c0-1,2-1.8,3.9,1.3c8.9,12.7,15.8,24.3,23,36
	c4.9,8,10,16.1,15.9,24.6C193.9,162,197.1,172.6,194.8,172.7z"/>
<path id="lefthand" class="st0" d="M37.6,176.1c-0.5,2-0.3,4.1,0.2,6.1c0.4,1.4,0.8,2.7,1.2,4.1c0.6,2,1,4,1.2,6.1c0,0,0,0.1,0,0.1
	c-0.7-0.2-1.4,0.2-2.1,0.4c-0.8,0.3-1.6,0.6-2.4,0.9c-0.4,0.2-0.8,0.4-1.1,0.6c-0.3,0.2-0.5,0.5-0.7,0.7c-0.1,0.1-0.1,0.2-0.2,0.3
	c-1.3,1.1-2.3,2.4-2.9,4c-0.4,1-0.7,2-1,3c0,0.1-0.1,0.3-0.1,0.4c-1.8-1.7-4.7-1.9-6.5-0.4c-0.1-0.7-0.7-1-1.2-1.2
	c-0.8-0.4-1.7-0.6-2.6-0.5c-0.3,0-0.6,0.2-0.9,0.3c-0.1,0-0.2,0.1-0.4,0.2c0.4-1.2-0.1-2.3-0.6-3.3c-0.5-1.1-1.6-1.5-2.7-2
	c0.1-1.2-0.5-2.2-1-3.2c-0.1-0.2-0.3-0.4-0.5-0.5c-0.5-0.3-0.9-0.5-1.4-0.8c-0.1-0.1-0.3,0-0.5,0c-0.2,0-0.5,0.1-0.7,0.1
	c0.1-0.2,0.3-0.3,0.4-0.4c1.1-1.3,2-2.7,2.8-4.2c1.5-2.4,3-4.8,5-6.9c0.8-0.8,1.6-1.6,2.4-2.5c1.1-1.2,1.8-1.8,2.3-3.3
	c0.2-0.4,7.2,0,12,0.6c0.4,0.1,2,0.3,2.3,0.7C37.9,175.2,37.5,175.9,37.6,176.1z"/>
<path id="indexfinger" class="st0" d="M21.9,219.1c-0.2,0-0.4,0.1-0.6,0.1c-1.2,0.2-2.1-0.6-2.1-1.8c0-1.5,0.3-3,0.8-4.4
	c1-3.3,2.1-6.5,3.1-9.8c0.1-0.4,0.4-0.7,0.7-0.8c0.9-0.5,1.8-0.8,2.9-0.6c0.8,0.2,1.6,0.5,2.3,1c0.1,0,0.1,0.1,0.2,0.2
	c0.2,0.2,0.2,0.3,0.1,0.6c-1,2.9-1.9,5.8-2.9,8.8c-0.4,1.3-0.8,2.7-1.5,3.9c-0.5,1-1.2,1.9-2.2,2.6c0,0,0,0,0,0.1
	C22.4,218.9,22.2,219,21.9,219.1z"/>
<path id="pinky" class="st0" d="M2,202c-0.1-0.5,0.1-1,0.4-1.4c1-1.9,2.3-3.5,3.7-4.9c1.2-1.2,2.4-2.4,3.7-3.6
	c0.6-0.6,1.2-0.7,2-0.4c0.4,0.1,0.9,0.3,1.2,0.6c0.2,0.3,0.5,0.6,0.6,0.9c0.2,0.4,0.4,0.9,0.6,1.4c0.1,0.4,0.2,0.7-0.2,1.1
	c-1,0.9-1.9,1.9-2.9,2.9c-1.3,1.3-2.6,2.5-3.8,3.8c-0.6,0.6-1.3,1.1-2.2,1.2c-1.1,0.1-2.1-0.2-2.9-1C2.1,202.3,2.1,202.2,2,202z"/>
<path id="middlefinger" class="st0" d="M18.2,201.1c0.9-0.5,1.9-0.3,2.8,0c0.5,0.1,0.9,0.4,1.3,0.7c0.3,0.2,0.4,0.5,0.5,0.8
	c0,0.1,0,0.1,0,0.2c-1.5,3.4-3.2,6.7-4.9,10c-0.6,1.1-1.1,2.2-1.7,3.3c-0.4,0.7-0.9,1.3-1.6,1.7c-0.9,0.6-1.9,0.4-2.6-0.3
	c-0.7-0.7-1-1.5-0.8-2.4c0.2-0.8,0.5-1.6,0.8-2.3c1.4-3,2.8-6,4.2-9c0.2-0.5,0.5-1,0.7-1.5C17.2,201.7,17.6,201.3,18.2,201.1z"/>
<path id="ringfinger" class="st0" d="M6.4,211.6c-0.4-1-0.4-2,0-3c0.3-0.8,0.7-1.6,1.1-2.4c1.1-2.1,2.2-4.1,3.5-6.1
	c0.7-1.1,1.5-2.1,2.3-3.2c0.1-0.2,0.3-0.4,0.4-0.6c0.4-0.5,1-0.6,1.6-0.2c0.5,0.3,0.9,0.7,1.4,1.1c0.1,0.1,0.3,0.3,0.3,0.5
	c0.2,0.5,0.4,1,0.6,1.5c0.2,0.5,0.1,0.9-0.1,1.3c-0.7,1.1-1.4,2.1-2.1,3.2c-1.4,2.3-2.8,4.6-4.2,6.9c-0.4,0.7-1,1.3-1.6,1.8
	C8.3,213.4,7,213,6.4,211.6z"/>
<path id="thumb" class="st0" d="M34.8,204.9c-0.4-1-0.6-2-0.6-3c0.1-1.4,0.1-2.7,0.2-4.1c0-0.6-0.1-1.3-0.2-1.9c0-0.2,0-0.4,0.1-0.6
	c0.3-0.4,0.6-0.6,1-0.8c0.9-0.5,1.8-0.8,2.7-1.1c0.5-0.1,0.9-0.3,1.4-0.5c0.3-0.1,0.6-0.2,0.8,0.1c0.2,0.2,0.3,0.5,0.3,0.8
	c0,1.2,0,2.4,0,3.6c0,2.4,0.1,4.9,0.7,7.3c0.1,0.5,0.2,0.9,0.3,1.4c0.2,1.4-0.7,2.7-2,2.8c-0.5,0.1-0.9-0.1-1.4-0.3
	c-0.9-0.4-1.6-1.2-2.3-2C35.4,206.2,35,205.6,34.8,204.9z"/>
<path id="righthand" class="st0" d="M183.4,198.3c0,1.5,0.1,3,0.2,4.5c0.1,2.6-1.2,4.6-3.1,6.3c-0.1,0.1-0.2,0.1-0.3,0.2
	c-0.9,0.6-1.9,0.9-2.9,0.2c-1-0.7-1.3-1.7-1-2.8c0.8-3.1,1-6.3,0.8-9.5c-0.2-3.5,0.3-6.9,1.4-10.3c1-3.1,1.9-6.7,1.1-10
	c-0.1-0.3-0.2-1.5,0.1-1.6c3.3-1.3,13.6-1.1,14.1-1.2c0.6-0.1,1.5,3.4,3.5,5.3c2.9,2.8,5.1,6.1,7.2,9.6c1.1,1.8,2.3,3.4,3.9,4.9
	c1.6,1.5,3.1,3,4.5,4.6c0.9,1.1,1.7,2.3,2.4,3.6c0.5,1,0.1,1.8-0.9,2.3c-1.5,0.7-3,0.4-4.3-1c-1.7-1.7-3.5-3.4-5.3-5.1
	c-0.4-0.4-0.8-0.7-1.2-1c0,0.4,0.2,0.6,0.4,0.9c2.7,3.3,4.6,7,6.6,10.7c0.6,1.1,1,2.4,0.7,3.7c-0.5,1.9-2.1,2.4-3.6,1.2
	c-0.5-0.4-1-0.9-1.3-1.5c-0.8-1.3-1.6-2.6-2.3-3.9c-1.1-1.8-2.2-3.6-3.3-5.4c-0.1,0-0.2,0.1-0.2,0.1c0,0.1,0,0.2,0.1,0.3
	c1.8,3.8,3.6,7.5,5.4,11.3c0.3,0.6,0.5,1.4,0.6,2.1c0.1,1-0.6,2.2-1.6,2.6c-0.9,0.4-1.7,0.2-2.6-0.6c-0.4-0.4-0.7-0.7-1-1.2
	c-1.7-3.2-3.4-6.4-5-9.6c-0.7-1.3-1.2-2.6-1.8-3.9c-0.1,0-0.2,0.1-0.3,0.1c0.3,0.8,0.5,1.6,0.8,2.4c1,3,2,6,2.9,9
	c0.3,1,0.4,2.2,0.4,3.3c0,1.2-0.9,1.9-2.1,1.8c-0.6-0.1-1.2-0.3-1.6-0.6c-1.6-1.1-2.3-2.9-2.9-4.6c-0.9-2.4-1.6-4.9-2.5-7.3
	c-0.8-2.4-1.6-4.8-2.5-7.1c-0.6-1.6-1.6-2.9-3.1-4.1C183.6,197.1,183.4,197.7,183.4,198.3z"/>
<path id="head" class="st0" d="M108.5,11c1,0,2,0,3,0c1,0.2,1.9,0.3,2.9,0.5c3.1,0.6,6,1.6,8.5,3.7c3.8,3.2,6.7,7.1,8.5,11.8
	c0.8,2.1,1.4,4.2,2,6.3c0.8,2.4,1.2,4.9,1.1,7.4c0,1.1-0.1,2.2-0.1,3.3c0,5-0.7,10-2.5,14.7c-0.9,2.4-1.7,4.8-2.7,7.2
	c-1.4,3.3-3.5,6-5.8,8.7c-2.5,2.9-5.4,5.2-9,6.5c-1.1,0.4-2.3,0.7-3.5,1c-1,0-2,0-3,0c-0.2,0-0.3-0.1-0.5-0.1
	c-3.1-0.4-6-1.3-8.5-3.1c-3.7-2.6-6.8-6-9.1-9.9c-1.5-2.6-2.6-5.4-3.6-8.2c-0.6-1.6-1.3-3.3-1.6-5c-0.4-2.3-0.6-4.8-0.7-7.1
	c-0.2-5.5,0.5-10.9,1.7-16.3c1.3-6,4.2-11.1,8.8-15.1c3.2-2.8,6.8-4.9,11-5.7C106.4,11.3,107.5,11.2,108.5,11z"/>
<path id="leftear" class="st0" d="M78.4,44.1c0.2-0.6,0.3-1.3,0.5-1.9c0.2-0.5,0.4-1,0.7-1.5c0.5-0.8,1.4-1.1,2.3-0.8
	c0.9,0.3,1.4,1,1.4,1.9c0,3.4,0.1,6.7,0.1,10.1c0,0.6,0.1,1.3,0.2,1.9c0.1,0.9-0.2,1.2-1,1c-0.6-0.1-1.2-0.5-1.4-1
	c-0.7-1.3-1.3-2.6-1.8-4c-0.4-1.3-0.6-2.6-0.9-4c0-0.1-0.1-0.2-0.1-0.3C78.4,45,78.4,44.6,78.4,44.1z"/>
<path id="rightear" class="st0" d="M139.8,44.5c-0.1,2.3-0.7,4.4-1.6,6.4c-0.5,1.1-1.1,2.1-1.8,3.1c-0.3,0.5-0.9,0.7-1.5,0.8
	c-0.6,0-1-0.3-0.8-0.9c0.6-2.7,0.6-5.4,0.8-8.1c0.1-1.4,0.1-2.7,0.2-4.1c0.1-0.9,0.7-1.6,1.5-1.8c0.9-0.2,1.7,0.1,2.2,0.9
	C139.5,41.9,139.8,43.2,139.8,44.5z"/>
<path id="rightfoot" class="st0" d="M131.7,275.4c3.1-0.3,2.7-0.3,5.2-0.5c5-0.2,6.7-0.4,9.4-0.5c0.9,0,4.3-0.7,4.9,0.2
	c2,3.4-0.6,5.8,2.8,10.9c0.9,2,3.1,3.5,4.9,5c6,4.9,12,9.7,19.3,12.7c2.4,1,5.1,2,7,3.7c1.6,1.5,2.7,3.8,3.2,6
	c0.6,2.4-3.7,5.6-6.9,5.2c-6.6-0.8-13.2-1.6-19.7-2.9c-10.2-2.1-20.3-4.8-30.5-7.2c-1.7-0.4-2.3-1.2-2.2-2.8
	c0.5-5.7,1.2-11.4,1.6-17.1c0.6-3.3,0.4-6.6-0.2-9.9C130.4,277,130.9,275.5,131.7,275.4z"/>
<path id="leftfoot" class="st0" d="M70,274c0-0.5,3.9,0.4,9,0.6c10.2,0.3,11.7-0.6,11.5,2.4c0,2.2-2.1,8.1,1.3,21.3
	c0.6,2.4,0.3,5.1,0,7.6c-0.1,0.7-1.2,1.7-2,1.9c-5.3,1.3-10.7,2.4-16,3.6c-6.2,1.4-12.4,2.9-18.6,4.4c-2.2,0.5-3.7,0.2-3.8-2.6
	c-0.1-2-1.6-3.2-3.7-2.9c-3.9,0.6-7.4,0.7-10.7,3.4c-0.5,0.4-1,0.8-2.7,0.6c-1.4-0.2-1.6-3.2-1.1-4c1.4-2.1,3.3-4.1,5.4-5.4
	c4-2.3,8.6-3.7,12.5-6.3c4.4-2.9,7.9-7,12.4-9.7C69.1,285.7,68.5,274,70,274z"/>
<path id="bigtoe" class="st0" d="M50.7,314.6c-0.9,2.1-1.6,2.5-2.7,2.8c-2.8,0.8-5.6,1.2-8.5,1.5c-1,0.1-2.5-0.7-2.9-1.5
	c-0.3-0.8,0.2-2.9,1-3.3c3.4-1.9,10-2.9,11-2.5C49.3,311.8,50.7,312.7,50.7,314.6z"/>
</svg>
