<?xml version="1.0" encoding="utf-8"?>
<!-- Generator: Adobe Illustrator 16.0.0, SVG Export Plug-In . SVG Version: 6.00 Build 0)  -->
<!DOCTYPE svg PUBLIC "-//W3C//DTD SVG 1.1//EN" "http://www.w3.org/Graphics/SVG/1.1/DTD/svg11.dtd">
<svg version="1.1" id="Layer_1" xmlns="http://www.w3.org/2000/svg" xmlns:xlink="http://www.w3.org/1999/xlink" x="0px" y="0px"
	 width="245.5px" height="502.617px" viewBox="0 0 245.5 502.617" enable-background="new 0 0 245.5 502.617" xml:space="preserve">
<path fill-rule="evenodd" clip-rule="evenodd" d="M-394.537,463.55c-1.155,3.842-2.474,7.301-2.86,11.329
	c-0.296,3.096-0.465,8.379-3.817,9.631c-2.242,0.838-2.997,4.078-4.788,5.604c-1.17,0.999-2.533,1.786-4.067,2.044
	c-2.012,0.338-2.738-0.725-4.332-1.659c-1.388-0.812-2.612,0.111-3.993-0.391c-1.733-0.629-3.446-1.474-5.148-2.193
	c-0.651-0.276-3.663-1.17-3.706-2.19c-0.075-1.771,0.387-3.362,1.793-4.51c2.76-2.255,5.345-3.814,7.571-6.724
	c2.329-3.045,4.766-5.759,5.675-9.579c4.183-17.576,1.164-35.917,0.64-53.677c-0.255-8.653-0.083-17.226,1.755-25.694
	c0.841-3.876,0.66-7.943,1.06-11.879c0.443-4.361,1.278-8.271,2.759-12.409c1.281-3.579,2.111-6.781,2.677-10.563
	c0.687-4.596,0.484-9.278,0.507-13.912c0.047-9.21,0.071-18.419,0.094-27.629s0.046-18.419,0.092-27.629
	c0.044-9.001-0.462-18.23,0.732-27.168c0.542-4.056,1.083-8.12,1.643-12.17c0.537-3.88,2.666-7.15,3.347-10.953
	c1.491-8.323,5.034-16.131,6.562-24.463c0.726-3.957,1.275-7.985,3.14-11.59c1.875-3.625,3.142-7.613,4.307-11.528
	c1.143-3.84,1.982-7.794,2.097-11.811c0.129-4.518-0.673-9.147-1.013-13.656c-0.369-4.89-0.803-10.912-2.863-15.408
	c-0.83-1.81-0.517-4.863-0.76-6.839c-0.39-3.163-1.157-4.991-2.733-7.689c-2.124,2.274-3.835,5.295-4.531,8.369
	c-0.825,3.651-2.593,7.208-3.99,10.673c-1.351,3.35-3.389,6.392-4.479,9.849c-1.093,3.463-2.064,6.988-3.068,10.479
	c-0.988,3.434-1.527,6.988-2.769,10.349c-1.275,3.452-2.912,6.782-4.351,10.167c-2.968,6.984-5.873,14.174-9.724,20.728
	c-3.707,6.308-7.858,12.19-10.346,19.15c-2.418,6.762-4.033,14.607-4.889,21.726c-0.414,3.439-1.799,6.464-2.381,9.864
	c-0.562,3.284-1.268,6.637-2.808,9.279c-1.883,3.229-3.791,0.879-2.917-2.053c0.978-3.28,1.109-5.094,1.321-6.842
	c0.226-1.866,0.642-2.613-0.101-4.414c-2.42,6.331-2.851,9.526-5.578,16.057c-0.981,2.35-4.836,0.646-3.711-1.393
	c0.805-1.456,1.53-5.286,2.039-6.862c0.286-0.887,0.391-1.778,0.431-2.704c0.053-1.227,1.55-5.544,0.183-5.778
	c-0.432,1.401-4.774,20.477-8.057,20.478c-2.998,0.001-1.975-3.978-1.088-6.486c1.284-3.634,3.581-11.262,3.956-15.098
	c-3.221,3.611-4.592,13.058-8.991,15.82c-2.41-0.931-0.497-4.11-0.266-6.161c0.24-2.131,1.28-3.789,2.011-5.752
	c1.604-4.304,2.705-8.825,4.259-13.165c0.369-1.03,2.533-5.059,0.7-5.17c-1.537-0.094-2.062,1.411-2.906,2.369
	c-2.493,2.831-5.525,4.328-7.594,2.733c0.702-3.497,3.022-5.338,5.236-7.815c1.211-1.355,2.331-2.791,3.597-4.098
	c1.367-1.41,3.562-2.201,5.293-3.041c2.975-1.442,7.487-2.916,9.242-5.915c2-3.417,3.23-7.64,4.529-11.359
	c2.867-8.213,4.386-16.88,6.649-25.271c1.011-3.75,1.781-7.576,3.145-11.218c1.555-4.151,3.791-7.807,5.83-11.71
	c1.789-3.425,2.887-7.355,4.283-10.959c1.562-4.031,2.73-8.142,4.081-12.24c1.125-3.416,2.932-6.598,4.254-9.946
	c1.693-4.286,2.909-8.331,3.772-12.852c0.79-4.136,1.461-8.282,2.142-12.437c0.325-1.981,0.645-3.986,1.255-5.903
	c0.587-1.845,1.594-3.594,1.59-5.533c-0.006-2.702,1.718-6.797,3.358-8.916c2.359-3.048,4.877-6.134,8.663-7.586
	c1.638-0.628,3.413-0.674,5.129-0.926c1.946-0.286,3.682-1.098,5.455-1.915c3.96-1.824,8.246-3.161,12.073-5.228
	c2.948-1.592,4.513-3.453,5.436-6.683c0.484-1.697,1.093-3.499,0.835-5.289c-0.282-1.95-0.864-3.833-1.097-5.81
	c-0.198-1.676-0.418-3.37-1.02-4.958c-0.626-1.651-1.697-2.736-1.781-4.57c-0.098-2.123-0.722-1.551-2.177-2.721
	c-1.225-0.985-2.052-2.401-2.634-3.839c-1.254-3.097-1.55-6.603-1.208-9.906c0.126-1.22,0.374-0.914,1.447-1.061
	c1.306-0.179,0.769-1.156,0.742-2.285c-0.061-2.521-0.19-5.042-0.108-7.564c0.223-6.798,2.036-15.807,8.114-19.895
	c2.828-1.902,6.879-3.115,10.172-3.939c3.815-0.955,8.167-0.069,11.821,1.233c3.198,1.139,7.672,4.011,9.725,6.766
	c1.009,1.354,1.326,3.647,1.921,5.229c0.826,2.195,1.756,4.289,2.049,6.641c0.479,3.84-0.174,7.718,0.031,11.572
	c0.059,1.109,0.271,2.228,1.589,2.333c1.236,0.099,0.838,0.598,0.875,1.781c0.037,1.173,0.021,2.35-0.09,3.519
	c-0.36,3.803-1.902,6.106-4.274,8.932c-1.106,1.317-1.658,2.929-2.172,4.542c-0.633,1.983-1.722,3.735-2.381,5.699
	c-1.21,3.604-1.105,7.451-1.101,11.202c0.004,3.293,1.405,6.242,4.364,7.845c7.183,3.892,15.192,7.376,23.206,8.789
	c7.038,1.24,10.798,8.16,12.736,14.413c1.162,3.747,1.523,7.63,2.91,11.313c1.521,4.042,1.493,8.035,1.976,12.293
	c0.476,4.201,2.458,7.561,3.461,11.583c1.126,4.514,2.804,8.951,4.332,13.342c2.837,8.161,5.883,16.24,9.654,24.014
	c3.614,7.453,7.876,14.94,9.054,23.265c0.496,3.504,1.275,6.729,2.393,10.09c1.199,3.608,1.498,7.415,2.812,10.975
	c1.876,5.081,2.984,11.232,6.374,15.6c1.685,2.17,3.845,3.327,6.345,4.33c2.752,1.104,7.14,2.416,9.081,4.766
	c1.83,2.215,2.669,4.461,5.146,6.225c1.74,1.239,3.29,5.029,1.988,6c-2.187,0.221-2.306-0.908-4.51-1.957
	c-1.687-0.802-3.137-2.772-4.296-3.947c-0.307-0.312-0.689-0.393-1.107-0.289c-1.543,0.381-0.843,1.181-0.471,2.4
	c0.764,2.507,1.523,5.017,2.323,7.513c1.385,4.316,2.53,7.852,4.038,12.448c0.607,1.851,1.396,3.323,1.346,5.392
	c-0.031,1.266-0.553,2.281-2.206,2.19c-0.764-0.042-3.817-7.415-4.051-8.096c-2.042-5.955-2.298-6.721-2.978-6.636
	c-1.361,2.042,0.461,5.732,0.85,7.062c1.447,4.935,1.843,4.576,2.298,7.062c0.401,2.193,0.783,3.972,0.171,5.786
	c-1.6,0.908-2.928-0.17-3.637-1.865c-0.764-1.828-0.84-3.88-1.609-5.735c-0.439-1.062-0.965-3.044-1.306-4.141
	c-0.646-2.077-1.704-6.184-3.147-6.041c-0.341,3.658,2.377,12.384,2.752,16.041c0.211,2.065-1.143,1.651-2.373,0.689
	c-1.045-0.816-1.464-3.135-1.867-4.339c-1.109-3.313-2.293-6.562-2.806-10.034c-0.419-2.835-1.067-4.825-2.153-3.946
	c-0.086,3.063,0.104,4.058,0.831,7.715c0.575,2.892,1.089,2.615,1.15,4.108c0.038,0.904-0.186,3.62-1.823,3.191
	c-1.693-0.443-1.773-1.747-2.177-3.189c-0.476-1.697-1.141-3.332-1.725-4.994c-1.426-4.058-1.19-8.197-1.962-12.379
	c-0.765-4.149-2.275-8.084-3.221-12.186c-0.436-1.887-0.434-4.071-1.086-5.88c-0.67-1.861-2.095-3.267-2.721-5.184
	c-2.624-8.034-8.422-14.219-11.931-21.729c-1.675-3.587-3.13-7.257-4.937-10.788c-2.007-3.922-4.776-7.958-6.04-12.197
	c-2.321-7.789-3.604-15.757-6.568-23.371c-1.387-3.562-3.183-7.012-4.476-10.588c-0.574-1.588-0.978-3.23-1.534-4.823
	c-0.642-1.835-2.076-3.244-2.729-4.972c-1.045-2.764-0.918-6.828-3.5-8.811c-2.081-1.598-2.079,2.644-2.357,4.008
	c-0.511,2.509-1.022,5.019-1.5,7.534c-1.619,8.514-3,17.338-3.47,25.998c-0.22,4.056-0.611,8.408-0.023,12.444
	c0.26,1.783,0.883,3.491,1.963,4.944c1.118,1.507,1.208,4.154,1.918,5.917c1.385,3.438,3.186,6.791,3.384,10.568
	c0.09,1.725,0.956,3.304,1.669,4.835c0.949,2.036,1.054,4.125,1.303,6.336c0.225,1.995,0.4,4.111,1.09,6.011
	c0.667,1.839,1.845,3.468,2.338,5.374c1.124,4.346,2.185,8.693,3.432,13.012c1.163,4.025,1.805,8.142,2.512,12.265
	c0.784,4.574,1.677,9,1.798,13.661c0.233,9.036-0.029,18.12,0.025,27.164c0.111,18.514,0.037,37.028,0.141,55.542
	c0.022,4.06,0.38,8.114,0.96,12.131c0.244,1.687,1.236,3.142,1.868,4.691c0.825,2.024,1.161,4.266,1.605,6.395
	c0.835,4.011,1.016,8.026,1.377,12.095c0.406,4.569,1.446,8.957,1.567,13.57c0.242,9.153,1.007,18.192,0.85,27.365
	c-0.158,9.22-0.408,18.438-0.554,27.658c-0.069,4.354-0.248,8.709,0.366,13.035c0.634,4.464,2.183,7.245,4.736,10.874
	c2.06,2.928,4.293,5.773,7.051,8.079c2.262,1.892,6.961,3.63,4.4,7.217c-1.598,2.238-7.133,3.464-9.715,3.495
	c-1.855,0.022-2.665,0.562-4.203,1.564c-1.832,1.194-2.488,0.549-4.402-0.172c-1.563-0.588-3.18-1.188-4.304-2.489
	c-0.791-0.92-0.68-2.035-1.511-3.04c-0.821-0.993-2.019-1.571-3.064-2.284c-1.459-0.992-1.943-3.886-2.214-5.48
	c-0.657-3.874-0.402-7.461-1.946-11.185c-0.681-1.644-1.878-3.335-2.012-5.141c-0.164-2.218,1.059-4.081,1.192-6.246
	c0.123-1.997-0.835-3.696-1.051-5.635c-0.231-2.078-0.649-4.114-1.05-6.166c-0.891-4.564-1.908-9.083-3.082-13.584
	c-2.094-8.031-4.643-15.895-6.376-24.018c-0.832-3.895-1.83-7.706-2.938-11.53c-1.204-4.151-0.705-8.638-0.695-12.927
	c0.011-4.45,0.01-8.9-0.095-13.349c-0.102-4.342-1.14-8.314-2.34-12.469c-1.067-3.692-2.783-6.771-3.336-10.646
	c-0.633-4.442-2.168-8.715-2.913-13.155c-0.709-4.228-1.18-8.491-1.806-12.731c-0.302-2.045-0.37-4.114-0.583-6.169
	c-0.251-2.42-1.011-4.691-1.432-7.075c-0.725-4.107-0.708-8.304-1.407-12.414c-0.333-1.959-1.071-3.68-1.87-5.486
	c-0.906-2.047-1.314-4.165-1.904-6.31c-2.24-8.146-6.42-15.381-7.468-23.857c-0.394-3.183,0.202-6.626-3.109-8.384
	c-1.33-0.706-1.915-2.189-3.536-2.404c-1.55-0.206-2.708,0.836-3.738,1.835c-1.008,0.978-2.334,1.717-2.681,3.173
	c-0.381,1.6-0.344,3.333-0.649,4.962c-0.802,4.287-1.75,8.632-3.171,12.76c-1.33,3.862-3.336,7.433-4.532,11.349
	c-1.307,4.282-2.366,8.654-3.513,12.981c-2.188,8.258-1.992,17.006-2.924,25.483c-0.445,4.049-1.716,7.911-2.283,11.94
	c-0.636,4.525-1.391,8.664-2.922,12.982c-1.384,3.9-2.07,8.007-3.422,11.944c-0.682,1.983-1.372,3.965-2.023,5.959
	c-0.621,1.9-0.179,4.47-0.176,6.438c0.015,8.931,0.425,17.825-1.486,26.594c-1.228,5.632-2.575,11.301-4.082,16.864
	c-1.5,5.537-3.494,10.797-4.538,16.474c-0.461,2.508-1.489,4.645-2.396,7.005c-1.095,2.848-1.383,5.976-1.857,8.97
	c-0.944,5.962-1.79,11.881-0.127,17.766C-394.255,463.688-394.396,463.619-394.537,463.55
	C-395.479,466.681-394.396,463.619-394.537,463.55z"/>
<rect x="-477.5" y="224.059" fill-rule="evenodd" clip-rule="evenodd" fill="none" width="47.5" height="54.5"/>
<rect x="-270" y="224.059" fill-rule="evenodd" clip-rule="evenodd" fill="none" width="47.5" height="54.5"/>
<rect x="-434" y="456.559" fill-rule="evenodd" clip-rule="evenodd" fill="none" width="51.5" height="45"/>
<rect x="-311" y="456.559" fill-rule="evenodd" clip-rule="evenodd" fill="none" width="51.5" height="45"/>
<rect x="-382.5" y="-19.941" fill-rule="evenodd" clip-rule="evenodd" fill="none" width="71.5" height="84.5"/>
<g>
	<path fill="none" d="M-594.627,247.309c-0.272-0.226-0.575-0.438-0.931-0.627c-1.33-0.706-1.915-2.189-3.536-2.404
		c-1.55-0.206-2.708,0.836-3.738,1.835c-0.43,0.417-0.915,0.792-1.359,1.196H-602H-594.627z"/>
	<path d="M-580.656,64.363c-1.661-0.9-2.814-2.233-3.522-3.805h-30.714c-0.967,2.247-2.441,3.735-4.842,5.032
		c-3.827,2.067-8.113,3.404-12.073,5.228c-1.773,0.816-3.509,1.628-5.455,1.915c-0.906,0.133-1.828,0.214-2.738,0.348v51.546
		c0.112-0.127,0.22-0.26,0.334-0.382c1.576,2.698,2.343,4.526,2.733,7.689c0.244,1.976-0.07,5.029,0.76,6.839
		c2.061,4.496,2.494,10.518,2.863,15.408c0.34,4.509,1.142,9.138,1.013,13.656c-0.114,4.017-0.954,7.97-2.097,11.811
		c-1.165,3.915-2.432,7.902-4.307,11.528c-1.865,3.605-2.415,7.633-3.14,11.59c-1.528,8.332-5.071,16.14-6.562,24.463
		c-0.681,3.803-2.811,7.073-3.347,10.953c-0.42,3.037-0.825,6.083-1.232,9.127h48.789c0.445-0.404,0.93-0.779,1.359-1.196
		c1.03-0.999,2.188-2.041,3.738-1.835c1.621,0.215,2.206,1.698,3.536,2.404c0.356,0.189,0.659,0.401,0.931,0.627h49.075
		c-0.186-1.069-0.377-2.141-0.562-3.222c-0.707-4.123-1.349-8.239-2.512-12.265c-1.247-4.318-2.308-8.666-3.432-13.012
		c-0.493-1.906-1.67-3.535-2.338-5.374c-0.69-1.899-0.865-4.016-1.09-6.011c-0.249-2.211-0.354-4.3-1.303-6.336
		c-0.713-1.531-1.579-3.11-1.669-4.835c-0.198-3.777-1.999-7.13-3.384-10.568c-0.71-1.764-0.8-4.41-1.918-5.917
		c-1.08-1.454-1.703-3.161-1.963-4.944c-0.588-4.036-0.197-8.388,0.023-12.444c0.471-8.659,1.852-17.484,3.47-25.998
		c0.478-2.516,0.989-5.025,1.5-7.534c0.26-1.276,0.276-5.068,1.98-4.245V72.882C-566.328,71.339-573.862,68.045-580.656,64.363z"/>
	<path fill="none" d="M-645.615,459.757c-0.141-0.069-0.282-0.138-0.422-0.207c0.141,0.069-0.941,3.131,0,0
		c-1.155,3.842-2.474,7.301-2.86,11.329c-0.296,3.096-0.465,8.379-3.817,9.631c-2.242,0.838-2.997,4.078-4.788,5.604
		c-1.17,0.999-2.533,1.786-4.067,2.044c-2.012,0.338-2.738-0.725-4.332-1.659c-1.388-0.812-2.612,0.111-3.993-0.391
		c-1.733-0.629-3.446-1.474-5.148-2.193c-0.651-0.276-3.663-1.17-3.706-2.19c-0.075-1.771,0.387-3.362,1.793-4.51
		c2.76-2.255,5.345-3.814,7.571-6.724c2.329-3.045,4.766-5.759,5.675-9.579c0.658-2.767,1.122-5.554,1.461-8.354h-5.879H-685.5v45
		h51.5v-45h-12.557C-646.548,454.964-646.291,457.363-645.615,459.757z"/>
	<path d="M-663.708,460.912c-0.909,3.82-3.346,6.534-5.675,9.579c-2.226,2.909-4.811,4.469-7.571,6.724
		c-1.406,1.147-1.868,2.738-1.793,4.51c0.043,1.021,3.054,1.914,3.706,2.19c1.702,0.72,3.415,1.564,5.148,2.193
		c1.381,0.502,2.605-0.422,3.993,0.391c1.594,0.935,2.32,1.997,4.332,1.659c1.534-0.258,2.896-1.045,4.067-2.044
		c1.791-1.526,2.545-4.767,4.788-5.604c3.352-1.252,3.521-6.535,3.817-9.631c0.386-4.028,1.705-7.487,2.86-11.329
		c0.141,0.069,0.282,0.138,0.422,0.207c-0.676-2.394-0.933-4.793-0.942-7.198h-15.69
		C-662.586,455.358-663.049,458.146-663.708,460.912z"/>
	<path d="M-646.037,459.55C-646.979,462.681-645.896,459.619-646.037,459.55L-646.037,459.55z"/>
	<path fill="none" d="M-536.109,457.395c0.634,4.464,2.183,7.245,4.736,10.874c2.06,2.928,4.293,5.773,7.051,8.079
		c2.262,1.892,6.961,3.63,4.4,7.217c-1.598,2.238-7.133,3.464-9.715,3.495c-1.855,0.022-2.665,0.562-4.203,1.564
		c-1.832,1.194-2.488,0.549-4.402-0.172c-1.563-0.588-3.18-1.188-4.304-2.489c-0.791-0.92-0.68-2.035-1.511-3.04
		c-0.821-0.993-2.019-1.571-3.064-2.284c-1.459-0.992-1.943-3.886-2.214-5.48c-0.657-3.874-0.402-7.461-1.946-11.185
		c-0.681-1.644-1.878-3.335-2.012-5.141c-0.164-2.218,1.059-4.081,1.192-6.246c0-0.01,0-0.019,0-0.028H-562.5v45h51.5v-45h-16
		h-9.511C-536.456,454.174-536.338,455.786-536.109,457.395z"/>
	<path d="M-553.294,458.833c0.134,1.806,1.331,3.497,2.012,5.141c1.544,3.724,1.289,7.311,1.946,11.185
		c0.271,1.595,0.755,4.488,2.214,5.48c1.046,0.713,2.243,1.291,3.064,2.284c0.831,1.005,0.72,2.12,1.511,3.04
		c1.125,1.301,2.741,1.901,4.304,2.489c1.914,0.721,2.57,1.366,4.402,0.172c1.538-1.002,2.348-1.542,4.203-1.564
		c2.582-0.031,8.117-1.257,9.715-3.495c2.561-3.587-2.138-5.325-4.4-7.217c-2.758-2.306-4.991-5.151-7.051-8.079
		c-2.553-3.629-4.102-6.41-4.736-10.874c-0.229-1.608-0.347-3.221-0.402-4.836h-15.591c0,0.01,0,0.019,0,0.028
		C-552.235,454.752-553.458,456.615-553.294,458.833z"/>
	<path fill="none" d="M-613.462,53.619c-0.282-1.95-0.864-3.833-1.097-5.81c-0.198-1.676-0.418-3.37-1.02-4.958
		c-0.626-1.651-1.697-2.736-1.781-4.57c-0.098-2.123-0.722-1.551-2.177-2.721c-1.225-0.985-2.052-2.401-2.634-3.839
		c-1.254-3.097-1.55-6.603-1.208-9.906c0.126-1.22,0.374-0.914,1.447-1.061c1.306-0.179,0.769-1.156,0.742-2.285
		c-0.061-2.521-0.19-5.042-0.108-7.564c0.223-6.798,2.036-15.807,8.114-19.895c2.828-1.902,6.879-3.115,10.172-3.939
		c3.815-0.955,8.167-0.069,11.821,1.233c3.198,1.139,7.672,4.011,9.725,6.766c1.009,1.354,1.326,3.647,1.921,5.229
		c0.826,2.195,1.756,4.289,2.049,6.641c0.479,3.84-0.174,7.718,0.031,11.572c0.059,1.109,0.271,2.228,1.589,2.333
		c1.236,0.099,0.838,0.598,0.875,1.781c0.037,1.173,0.021,2.35-0.09,3.519c-0.36,3.803-1.902,6.106-4.274,8.932
		c-1.106,1.317-1.658,2.929-2.172,4.542c-0.633,1.983-1.722,3.735-2.381,5.699c-1.21,3.604-1.105,7.451-1.101,11.202
		c0.002,1.444,0.29,2.813,0.842,4.041h21.678v-84.5H-634v84.5h19.108c0.22-0.513,0.423-1.052,0.594-1.651
		C-613.813,57.21-613.204,55.408-613.462,53.619z"/>
	<path d="M-585.02,56.518c-0.005-3.751-0.109-7.598,1.101-11.202c0.659-1.964,1.748-3.716,2.381-5.699
		c0.515-1.613,1.066-3.224,2.172-4.542c2.373-2.825,3.914-5.129,4.274-8.932c0.111-1.169,0.127-2.346,0.09-3.519
		c-0.036-1.183,0.361-1.682-0.875-1.781c-1.318-0.106-1.53-1.225-1.589-2.333c-0.206-3.854,0.447-7.731-0.031-11.572
		c-0.293-2.352-1.223-4.446-2.049-6.641c-0.596-1.582-0.912-3.875-1.921-5.229c-2.053-2.755-6.527-5.627-9.725-6.766
		c-3.655-1.302-8.006-2.188-11.821-1.233c-3.292,0.825-7.344,2.038-10.172,3.939c-6.078,4.088-7.891,13.097-8.114,19.895
		c-0.083,2.522,0.047,5.043,0.108,7.564c0.027,1.128,0.564,2.106-0.742,2.285c-1.073,0.147-1.321-0.159-1.447,1.061
		c-0.342,3.303-0.045,6.809,1.208,9.906c0.582,1.438,1.41,2.854,2.634,3.839c1.455,1.17,2.079,0.598,2.177,2.721
		c0.084,1.833,1.155,2.919,1.781,4.57c0.602,1.587,0.822,3.281,1.02,4.958c0.233,1.977,0.815,3.86,1.097,5.81
		c0.258,1.79-0.351,3.592-0.835,5.289c-0.171,0.6-0.374,1.139-0.594,1.651h30.714C-584.73,59.331-585.018,57.962-585.02,56.518z"/>
	<path fill="none" d="M-648.187,143.287c-1.351,3.35-3.389,6.392-4.479,9.849c-1.093,3.463-2.064,6.988-3.068,10.479
		c-0.988,3.434-1.527,6.988-2.769,10.349c-1.275,3.452-2.912,6.782-4.351,10.167c-2.968,6.984-5.873,14.174-9.724,20.728
		c-3.074,5.23-6.439,10.179-8.923,15.682v54.018H-729v-54.5h32.748c0.11-0.153,0.216-0.309,0.311-0.47
		c2-3.417,3.23-7.64,4.529-11.359c2.867-8.213,4.386-16.88,6.649-25.271c1.011-3.75,1.781-7.576,3.145-11.218
		c1.555-4.151,3.791-7.807,5.83-11.71c1.789-3.425,2.887-7.355,4.283-10.959c1.562-4.031,2.73-8.142,4.081-12.24
		c1.125-3.416,2.932-6.598,4.254-9.946c1.693-4.286,2.909-8.331,3.772-12.852c0.79-4.136,1.461-8.282,2.142-12.437
		c0.325-1.981,0.645-3.986,1.255-5.903c0.587-1.845,1.594-3.594,1.59-5.533c-0.006-2.702,1.718-6.797,3.358-8.916
		c2.359-3.048,4.877-6.134,8.663-7.586c0.773-0.296,1.577-0.458,2.391-0.578V47.059h-99.5v238.5l61.746,2.5l5.754-40.75l32-69.25
		v-53.431c-1.966,2.226-3.539,5.078-4.196,7.987C-645.021,136.265-646.79,139.823-648.187,143.287z"/>
	<path d="M-642.391,73.659c-3.785,1.452-6.304,4.538-8.663,7.586c-1.64,2.119-3.364,6.214-3.358,8.916
		c0.004,1.938-1.003,3.688-1.59,5.533c-0.61,1.917-0.931,3.922-1.255,5.903c-0.681,4.155-1.353,8.301-2.142,12.437
		c-0.863,4.521-2.08,8.566-3.772,12.852c-1.322,3.348-3.128,6.531-4.254,9.946c-1.351,4.098-2.519,8.209-4.081,12.24
		c-1.396,3.604-2.494,7.534-4.283,10.959c-2.039,3.903-4.275,7.559-5.83,11.71c-1.364,3.642-2.133,7.468-3.145,11.218
		c-2.263,8.39-3.782,17.058-6.649,25.271c-1.299,3.72-2.53,7.942-4.529,11.359c-0.095,0.161-0.201,0.316-0.311,0.47h14.752v0.482
		c2.483-5.503,5.849-10.451,8.923-15.682c3.851-6.554,6.755-13.744,9.724-20.728c1.439-3.386,3.075-6.716,4.351-10.167
		c1.242-3.36,1.78-6.915,2.769-10.349c1.004-3.491,1.976-7.016,3.068-10.479c1.09-3.457,3.128-6.499,4.479-9.849
		c1.397-3.464,3.166-7.022,3.99-10.673c0.658-2.909,2.23-5.761,4.196-7.987V73.081C-640.813,73.201-641.618,73.363-642.391,73.659z"
		/>
	<path fill="none" d="M-729,274.559h47.5v-54.018c-0.511,1.133-0.998,2.28-1.423,3.469c-2.418,6.762-4.033,14.607-4.889,21.726
		c-0.414,3.439-1.799,6.464-2.381,9.864c-0.562,3.284-1.268,6.637-2.808,9.279c-1.883,3.229-3.791,0.879-2.917-2.053
		c0.978-3.28,1.109-5.094,1.321-6.842c0.226-1.866,0.642-2.613-0.101-4.414c-2.42,6.331-2.851,9.526-5.578,16.057
		c-0.981,2.35-4.836,0.646-3.711-1.393c0.805-1.456,1.53-5.286,2.039-6.862c0.286-0.887,0.391-1.778,0.431-2.704
		c0.053-1.227,1.55-5.544,0.183-5.778c-0.432,1.401-4.774,20.477-8.057,20.478c-2.998,0.001-1.975-3.978-1.088-6.486
		c1.284-3.634,3.581-11.262,3.956-15.098c-3.221,3.611-4.592,13.058-8.991,15.82c-2.41-0.931-0.497-4.11-0.266-6.161
		c0.24-2.131,1.28-3.789,2.011-5.752c1.604-4.304,2.705-8.825,4.259-13.165c0.369-1.03,2.533-5.059,0.7-5.17
		c-1.537-0.094-2.062,1.411-2.906,2.369c-2.493,2.831-5.525,4.328-7.594,2.733c0.702-3.497,3.022-5.338,5.236-7.815
		c1.211-1.355,2.331-2.791,3.597-4.098c1.367-1.41,3.562-2.201,5.293-3.041c2.814-1.364,7.001-2.76,8.931-5.445H-729V274.559z"/>
	<path d="M-705.183,225.504c-1.731,0.84-3.926,1.631-5.293,3.041c-1.266,1.307-2.386,2.742-3.597,4.098
		c-2.214,2.478-4.535,4.318-5.236,7.815c2.069,1.595,5.101,0.098,7.594-2.733c0.844-0.958,1.369-2.463,2.906-2.369
		c1.833,0.111-0.331,4.14-0.7,5.17c-1.555,4.34-2.656,8.861-4.259,13.165c-0.731,1.963-1.771,3.621-2.011,5.752
		c-0.231,2.051-2.144,5.23,0.266,6.161c4.399-2.763,5.77-12.209,8.991-15.82c-0.375,3.836-2.671,11.464-3.956,15.098
		c-0.887,2.509-1.91,6.487,1.088,6.486c3.283-0.001,7.625-19.076,8.057-20.478c1.368,0.234-0.13,4.552-0.183,5.778
		c-0.04,0.926-0.145,1.817-0.431,2.704c-0.509,1.576-1.234,5.406-2.039,6.862c-1.125,2.038,2.729,3.742,3.711,1.393
		c2.727-6.53,3.157-9.726,5.578-16.057c0.743,1.801,0.326,2.548,0.101,4.414c-0.211,1.748-0.343,3.562-1.321,6.842
		c-0.874,2.932,1.034,5.282,2.917,2.053c1.54-2.643,2.246-5.995,2.808-9.279c0.582-3.4,1.967-6.425,2.381-9.864
		c0.856-7.118,2.47-14.964,4.889-21.726c0.425-1.188,0.912-2.336,1.423-3.469v-0.482h-14.752
		C-698.182,222.744-702.369,224.14-705.183,225.504z"/>
	<path fill="none" d="M-526.75,247.309l5.754,40.75l61.746-2.5v-238.5h-99.5v25.823c0.434,0.088,0.867,0.193,1.3,0.27
		c7.038,1.24,10.798,8.16,12.736,14.413c1.162,3.747,1.523,7.63,2.91,11.313c1.521,4.042,1.493,8.035,1.976,12.293
		c0.476,4.201,2.458,7.561,3.461,11.583c1.126,4.514,2.804,8.951,4.332,13.342c2.837,8.161,5.883,16.24,9.654,24.014
		c3.614,7.453,7.876,14.94,9.054,23.265c0.496,3.504,1.275,6.729,2.393,10.09c1.199,3.608,1.498,7.415,2.812,10.975
		c1.876,5.081,2.984,11.232,6.374,15.6c0.005,0.007,0.011,0.012,0.016,0.019H-474v54.5h-47.5v-54.5h4.077
		c-2.863-7.06-7.964-12.813-11.166-19.667c-1.675-3.587-3.13-7.257-4.937-10.788c-2.007-3.922-4.776-7.958-6.04-12.197
		c-2.321-7.789-3.604-15.757-6.568-23.371c-1.387-3.562-3.183-7.012-4.476-10.588c-0.574-1.588-0.978-3.23-1.534-4.823
		c-0.642-1.835-2.076-3.244-2.729-4.972c-1.045-2.764-0.918-6.828-3.5-8.811c-0.134-0.103-0.259-0.18-0.377-0.237v53.454
		L-526.75,247.309z"/>
	<path d="M-554.873,133.652c0.653,1.729,2.088,3.137,2.729,4.972c0.557,1.593,0.96,3.235,1.534,4.823
		c1.293,3.576,3.089,7.026,4.476,10.588c2.964,7.614,4.247,15.583,6.568,23.371c1.263,4.239,4.033,8.275,6.04,12.197
		c1.807,3.53,3.261,7.201,4.937,10.788c3.202,6.854,8.303,12.607,11.166,19.667h15.691c-0.005-0.007-0.011-0.012-0.016-0.019
		c-3.39-4.367-4.498-10.519-6.374-15.6c-1.314-3.56-1.613-7.366-2.812-10.975c-1.117-3.361-1.896-6.586-2.393-10.09
		c-1.178-8.324-5.44-15.812-9.054-23.265c-3.771-7.774-6.816-15.853-9.654-24.014c-1.527-4.392-3.206-8.829-4.332-13.342
		c-1.003-4.023-2.985-7.383-3.461-11.583c-0.483-4.258-0.455-8.251-1.976-12.293c-1.387-3.684-1.749-7.566-2.91-11.313
		c-1.938-6.253-5.698-13.173-12.736-14.413c-0.434-0.077-0.867-0.182-1.3-0.27v51.723c0.118,0.057,0.243,0.134,0.377,0.237
		C-555.791,126.824-555.918,130.888-554.873,133.652z"/>
	<path fill="none" d="M-495.402,224.37c2.752,1.104,7.14,2.416,9.081,4.766c1.83,2.215,2.669,4.461,5.146,6.225
		c1.74,1.239,3.29,5.029,1.988,6c-2.187,0.221-2.306-0.908-4.51-1.957c-1.687-0.802-3.137-2.772-4.296-3.947
		c-0.307-0.312-0.689-0.393-1.107-0.289c-1.543,0.381-0.843,1.181-0.471,2.4c0.764,2.507,1.523,5.017,2.323,7.513
		c1.385,4.316,2.53,7.852,4.038,12.448c0.607,1.851,1.396,3.323,1.346,5.392c-0.031,1.266-0.553,2.281-2.206,2.19
		c-0.764-0.042-3.817-7.415-4.051-8.096c-2.042-5.955-2.298-6.721-2.978-6.636c-1.361,2.042,0.461,5.732,0.85,7.062
		c1.447,4.935,1.843,4.576,2.298,7.062c0.401,2.193,0.783,3.972,0.171,5.786c-1.6,0.908-2.928-0.17-3.637-1.865
		c-0.764-1.828-0.84-3.88-1.609-5.735c-0.439-1.062-0.965-3.044-1.306-4.141c-0.646-2.077-1.704-6.184-3.147-6.041
		c-0.341,3.658,2.377,12.384,2.752,16.041c0.211,2.065-1.143,1.651-2.373,0.689c-1.045-0.816-1.464-3.135-1.867-4.339
		c-1.109-3.313-2.293-6.562-2.806-10.034c-0.419-2.835-1.067-4.825-2.153-3.946c-0.086,3.063,0.104,4.058,0.831,7.715
		c0.575,2.892,1.089,2.615,1.15,4.108c0.038,0.904-0.186,3.62-1.823,3.191c-1.693-0.443-1.773-1.747-2.177-3.189
		c-0.476-1.697-1.141-3.332-1.725-4.994c-1.426-4.058-1.19-8.197-1.962-12.379c-0.765-4.149-2.275-8.084-3.221-12.186
		c-0.436-1.887-0.434-4.071-1.086-5.88c-0.67-1.861-2.095-3.267-2.721-5.184c-0.229-0.702-0.49-1.386-0.765-2.062h-4.077v54.5h47.5
		v-54.5h-27.731C-500.049,222.216-497.895,223.37-495.402,224.37z"/>
	<path d="M-516.658,222.12c0.626,1.917,2.051,3.322,2.721,5.184c0.652,1.809,0.65,3.993,1.086,5.88
		c0.945,4.102,2.456,8.036,3.221,12.186c0.771,4.182,0.536,8.321,1.962,12.379c0.584,1.662,1.249,3.297,1.725,4.994
		c0.403,1.442,0.483,2.746,2.177,3.189c1.638,0.429,1.861-2.287,1.823-3.191c-0.062-1.493-0.575-1.217-1.15-4.108
		c-0.728-3.657-0.917-4.651-0.831-7.715c1.086-0.879,1.734,1.111,2.153,3.946c0.513,3.473,1.696,6.721,2.806,10.034
		c0.403,1.204,0.822,3.522,1.867,4.339c1.23,0.962,2.584,1.376,2.373-0.689c-0.375-3.657-3.093-12.383-2.752-16.041
		c1.443-0.143,2.502,3.964,3.147,6.041c0.341,1.097,0.866,3.079,1.306,4.141c0.77,1.855,0.846,3.907,1.609,5.735
		c0.709,1.695,2.037,2.773,3.637,1.865c0.612-1.814,0.23-3.593-0.171-5.786c-0.455-2.485-0.851-2.127-2.298-7.062
		c-0.389-1.329-2.211-5.02-0.85-7.062c0.68-0.085,0.936,0.681,2.978,6.636c0.233,0.681,3.287,8.054,4.051,8.096
		c1.653,0.091,2.175-0.925,2.206-2.19c0.051-2.068-0.738-3.541-1.346-5.392c-1.508-4.597-2.653-8.132-4.038-12.448
		c-0.8-2.496-1.56-5.006-2.323-7.513c-0.372-1.22-1.072-2.02,0.471-2.4c0.418-0.104,0.801-0.022,1.107,0.289
		c1.159,1.175,2.609,3.146,4.296,3.947c2.204,1.049,2.323,2.178,4.51,1.957c1.302-0.971-0.248-4.761-1.988-6
		c-2.478-1.764-3.316-4.01-5.146-6.225c-1.941-2.35-6.329-3.662-9.081-4.766c-2.492-1-4.646-2.154-6.329-4.312h-15.691
		C-517.148,220.734-516.888,221.418-516.658,222.12z"/>
	<path fill="none" d="M-663.067,407.235c-0.255-8.653-0.083-17.226,1.755-25.694c0.841-3.876,0.66-7.943,1.06-11.879
		c0.443-4.361,1.278-8.271,2.759-12.409c1.281-3.579,2.111-6.781,2.677-10.563c0.687-4.596,0.484-9.278,0.507-13.912
		c0.047-9.21,0.071-18.419,0.094-27.629s0.046-18.419,0.092-27.629c0.044-9.001-0.462-18.23,0.732-27.168
		c0.135-1.014,0.275-2.028,0.411-3.043h-15.146v205.25h5.879C-660.43,437.574-662.626,422.199-663.067,407.235z"/>
	<path fill="none" d="M-604.192,247.309c-0.599,0.544-1.123,1.142-1.321,1.977c-0.381,1.6-0.344,3.333-0.649,4.962
		c-0.802,4.287-1.75,8.632-3.171,12.76c-1.33,3.862-3.336,7.433-4.532,11.349c-1.307,4.282-2.366,8.654-3.513,12.981
		c-2.188,8.258-1.992,17.006-2.924,25.483c-0.445,4.049-1.716,7.911-2.283,11.94c-0.636,4.525-1.391,8.664-2.922,12.982
		c-1.384,3.9-2.07,8.007-3.422,11.944c-0.682,1.983-1.372,3.965-2.023,5.959c-0.621,1.9-0.179,4.47-0.176,6.438
		c0.015,8.931,0.425,17.825-1.486,26.594c-1.228,5.632-2.575,11.301-4.082,16.864c-1.5,5.537-3.494,10.797-4.538,16.474
		c-0.461,2.508-1.489,4.645-2.396,7.005c-1.095,2.848-1.383,5.976-1.857,8.97c-0.56,3.537-1.081,7.059-1.069,10.567H-634h32v-205.25
		H-604.192z"/>
	<path d="M-654.123,277.52c-0.045,9.21-0.068,18.419-0.092,27.629s-0.047,18.419-0.094,27.629c-0.023,4.634,0.18,9.316-0.507,13.912
		c-0.565,3.782-1.396,6.984-2.677,10.563c-1.481,4.139-2.316,8.048-2.759,12.409c-0.399,3.936-0.218,8.003-1.06,11.879
		c-1.839,8.469-2.01,17.041-1.755,25.694c0.441,14.964,2.637,30.339,0.821,45.323h15.69c-0.012-3.509,0.509-7.03,1.069-10.567
		c0.474-2.994,0.762-6.122,1.857-8.97c0.908-2.36,1.936-4.497,2.396-7.005c1.044-5.677,3.038-10.937,4.538-16.474
		c1.507-5.563,2.854-11.232,4.082-16.864c1.912-8.769,1.501-17.663,1.486-26.594c-0.003-1.969-0.445-4.538,0.176-6.438
		c0.651-1.994,1.342-3.976,2.023-5.959c1.352-3.938,2.038-8.044,3.422-11.944c1.532-4.318,2.286-8.457,2.922-12.982
		c0.567-4.029,1.838-7.892,2.283-11.94c0.932-8.478,0.737-17.226,2.924-25.483c1.146-4.327,2.206-8.699,3.513-12.981
		c1.196-3.916,3.202-7.486,4.532-11.349c1.421-4.128,2.369-8.473,3.171-12.76c0.305-1.629,0.268-3.362,0.649-4.962
		c0.199-0.835,0.723-1.433,1.321-1.977h-48.789c-0.136,1.015-0.275,2.029-0.411,3.043
		C-654.585,259.289-654.079,268.519-654.123,277.52z"/>
	<path fill="none" d="M-544.291,284.912c0.111,18.514,0.037,37.028,0.141,55.542c0.022,4.06,0.38,8.114,0.96,12.131
		c0.244,1.687,1.236,3.142,1.868,4.691c0.825,2.024,1.161,4.266,1.605,6.395c0.835,4.011,1.016,8.026,1.377,12.095
		c0.406,4.569,1.446,8.957,1.567,13.57c0.242,9.153,1.007,18.192,0.85,27.365c-0.158,9.22-0.408,18.438-0.554,27.658
		c-0.043,2.735-0.129,5.471-0.036,8.199H-527v-205.25h-18.552c0.601,3.456,1.144,6.88,1.236,10.439
		C-544.083,266.784-544.346,275.868-544.291,284.912z"/>
	<path fill="none" d="M-553.153,446.952c-0.231-2.078-0.649-4.114-1.05-6.166c-0.891-4.564-1.908-9.083-3.082-13.584
		c-2.094-8.031-4.643-15.895-6.376-24.018c-0.832-3.895-1.83-7.706-2.938-11.53c-1.204-4.151-0.705-8.638-0.695-12.927
		c0.011-4.45,0.01-8.9-0.095-13.349c-0.102-4.342-1.14-8.314-2.34-12.469c-1.067-3.692-2.783-6.771-3.336-10.646
		c-0.633-4.442-2.168-8.715-2.913-13.155c-0.709-4.228-1.18-8.491-1.806-12.731c-0.302-2.045-0.37-4.114-0.583-6.169
		c-0.251-2.42-1.011-4.691-1.432-7.075c-0.725-4.107-0.708-8.304-1.407-12.414c-0.333-1.959-1.071-3.68-1.87-5.486
		c-0.906-2.047-1.314-4.165-1.904-6.31c-2.24-8.146-6.42-15.381-7.468-23.857c-0.351-2.84,0.077-5.885-2.178-7.757H-602v205.25h39.5
		h10.398C-551.99,450.574-552.938,448.881-553.153,446.952z"/>
	<path d="M-592.449,255.065c1.048,8.477,5.228,15.711,7.468,23.857c0.59,2.145,0.999,4.263,1.904,6.31
		c0.799,1.807,1.536,3.527,1.87,5.486c0.7,4.11,0.683,8.307,1.407,12.414c0.421,2.384,1.181,4.655,1.432,7.075
		c0.213,2.055,0.282,4.124,0.583,6.169c0.626,4.24,1.097,8.504,1.806,12.731c0.745,4.44,2.28,8.713,2.913,13.155
		c0.553,3.875,2.269,6.954,3.336,10.646c1.2,4.154,2.238,8.127,2.34,12.469c0.104,4.448,0.105,8.898,0.095,13.349
		c-0.01,4.289-0.509,8.775,0.695,12.927c1.109,3.824,2.107,7.636,2.938,11.53c1.733,8.123,4.282,15.986,6.376,24.018
		c1.174,4.501,2.191,9.02,3.082,13.584c0.401,2.052,0.818,4.088,1.05,6.166c0.214,1.929,1.163,3.622,1.051,5.606h15.591
		c-0.094-2.729-0.008-5.464,0.036-8.199c0.146-9.22,0.396-18.438,0.554-27.658c0.157-9.173-0.608-18.212-0.85-27.365
		c-0.122-4.613-1.162-9.001-1.567-13.57c-0.361-4.068-0.542-8.084-1.377-12.095c-0.444-2.129-0.78-4.37-1.605-6.395
		c-0.632-1.55-1.625-3.005-1.868-4.691c-0.58-4.017-0.938-8.071-0.96-12.131c-0.104-18.514-0.03-37.028-0.141-55.542
		c-0.055-9.044,0.208-18.128-0.025-27.164c-0.092-3.56-0.635-6.983-1.236-10.439h-49.075
		C-592.372,249.181-592.8,252.226-592.449,255.065z"/>
</g>
<path d="M140.846,77.693c-1.66-0.9-2.813-2.233-3.521-3.805H106.61c-0.967,2.247-2.44,3.735-4.842,5.032
	c-3.827,2.067-8.112,3.404-12.073,5.228c-1.773,0.816-3.509,1.628-5.455,1.915c-0.906,0.133-1.828,0.214-2.738,0.348v51.546
	c0.111-0.127,0.221-0.26,0.334-0.382c1.576,2.698,2.344,4.526,2.734,7.689c0.243,1.976-0.07,5.029,0.76,6.839
	c2.061,4.496,2.494,10.518,2.863,15.408c0.34,4.509,1.143,9.138,1.014,13.656c-0.115,4.017-0.954,7.97-2.098,11.811
	c-1.164,3.915-2.432,7.902-4.307,11.528c-1.865,3.605-2.414,7.633-3.141,11.59c-1.527,8.332-5.07,16.14-6.562,24.463
	c-0.681,3.803-2.811,7.073-3.347,10.953c-0.42,3.037-0.826,6.083-1.232,9.127h48.789c0.444-0.404,0.93-0.779,1.359-1.196
	c1.029-0.999,2.188-2.041,3.738-1.835c1.621,0.215,2.205,1.698,3.535,2.404c0.356,0.189,0.659,0.401,0.932,0.627h49.074
	c-0.186-1.069-0.377-2.141-0.562-3.222c-0.707-4.123-1.349-8.239-2.513-12.265c-1.246-4.318-2.308-8.666-3.432-13.012
	c-0.493-1.906-1.67-3.535-2.338-5.374c-0.689-1.899-0.865-4.016-1.09-6.011c-0.25-2.211-0.354-4.3-1.303-6.336
	c-0.714-1.531-1.58-3.11-1.67-4.835c-0.198-3.777-1.999-7.13-3.384-10.568c-0.71-1.764-0.8-4.41-1.918-5.917
	c-1.079-1.454-1.703-3.161-1.963-4.944c-0.589-4.036-0.197-8.388,0.022-12.444c0.471-8.659,1.852-17.484,3.471-25.998
	c0.479-2.516,0.988-5.025,1.5-7.534c0.26-1.276,0.276-5.068,1.98-4.245V86.212C155.174,84.669,147.641,81.375,140.846,77.693z"/>
<path d="M57.795,474.242c-0.91,3.82-3.347,6.534-5.676,9.579c-2.226,2.909-4.811,4.469-7.57,6.724
	c-1.406,1.147-1.868,2.738-1.793,4.51c0.043,1.021,3.054,1.914,3.705,2.19c1.701,0.72,3.414,1.564,5.148,2.193
	c1.381,0.502,2.605-0.422,3.992,0.391c1.594,0.935,2.32,1.997,4.332,1.659c1.533-0.258,2.896-1.045,4.066-2.044
	c1.791-1.526,2.546-4.767,4.788-5.604c3.352-1.252,3.521-6.535,3.817-9.631c0.385-4.028,1.704-7.487,2.859-11.329
	c0.141,0.069,0.281,0.138,0.422,0.207c-0.676-2.394-0.933-4.793-0.941-7.198H59.256C58.916,468.688,58.453,471.476,57.795,474.242z"
	/>
<path d="M168.207,472.163c0.135,1.806,1.332,3.497,2.013,5.141c1.544,3.724,1.289,7.311,1.946,11.185
	c0.271,1.595,0.755,4.488,2.214,5.48c1.046,0.713,2.243,1.291,3.064,2.284c0.831,1.005,0.72,2.12,1.511,3.04
	c1.125,1.301,2.741,1.901,4.305,2.489c1.913,0.721,2.57,1.366,4.401,0.172c1.538-1.002,2.349-1.542,4.203-1.564
	c2.582-0.031,8.117-1.257,9.715-3.495c2.562-3.587-2.138-5.325-4.399-7.217c-2.758-2.306-4.992-5.151-7.051-8.079
	c-2.554-3.629-4.103-6.41-4.736-10.874c-0.229-1.608-0.347-3.221-0.402-4.836H169.4c-0.001,0.01,0,0.019,0,0.028
	C169.267,468.082,168.043,469.945,168.207,472.163z"/>
<path d="M136.482,69.848c-0.006-3.751-0.109-7.598,1.1-11.202c0.66-1.964,1.748-3.716,2.381-5.699
	c0.516-1.613,1.066-3.224,2.173-4.542c2.372-2.825,3.914-5.129,4.274-8.932c0.111-1.169,0.127-2.346,0.09-3.519
	c-0.035-1.183,0.361-1.682-0.874-1.781c-1.317-0.106-1.53-1.225-1.589-2.333c-0.206-3.854,0.447-7.731-0.031-11.572
	c-0.293-2.352-1.223-4.446-2.049-6.641c-0.596-1.582-0.912-3.875-1.922-5.229c-2.053-2.755-6.527-5.627-9.725-6.766
	c-3.655-1.302-8.006-2.188-11.822-1.233c-3.292,0.825-7.344,2.038-10.172,3.939c-6.077,4.088-7.891,13.097-8.113,19.895
	c-0.082,2.522,0.047,5.043,0.107,7.564c0.027,1.128,0.564,2.106-0.741,2.285c-1.073,0.147-1.321-0.159-1.446,1.061
	c-0.342,3.303-0.046,6.809,1.208,9.906c0.582,1.438,1.409,2.854,2.634,3.839c1.455,1.17,2.08,0.598,2.178,2.721
	c0.084,1.833,1.154,2.919,1.781,4.57c0.602,1.587,0.821,3.281,1.02,4.958c0.232,1.977,0.814,3.86,1.096,5.81
	c0.259,1.79-0.35,3.592-0.834,5.289c-0.172,0.6-0.375,1.139-0.595,1.651h30.714C136.771,72.661,136.484,71.292,136.482,69.848z"/>
<path d="M79.111,86.989c-3.785,1.452-6.304,4.538-8.662,7.586c-1.641,2.119-3.365,6.214-3.358,8.916
	c0.005,1.938-1.003,3.688-1.59,5.533c-0.61,1.917-0.931,3.922-1.255,5.903c-0.682,4.155-1.354,8.301-2.143,12.437
	c-0.863,4.521-2.08,8.566-3.772,12.852c-1.322,3.348-3.128,6.531-4.254,9.946c-1.351,4.098-2.519,8.209-4.081,12.24
	c-1.396,3.604-2.494,7.534-4.283,10.959c-2.039,3.903-4.274,7.559-5.83,11.71c-1.363,3.642-2.133,7.468-3.145,11.218
	c-2.263,8.39-3.781,17.058-6.648,25.271c-1.299,3.72-2.529,7.942-4.529,11.359c-0.095,0.161-0.201,0.316-0.311,0.47h14.752v0.482
	c2.483-5.503,5.85-10.451,8.923-15.682c3.851-6.554,6.755-13.744,9.724-20.728c1.439-3.386,3.075-6.716,4.351-10.167
	c1.241-3.36,1.78-6.915,2.769-10.349c1.004-3.491,1.976-7.016,3.068-10.479c1.09-3.457,3.129-6.499,4.479-9.849
	c1.397-3.464,3.165-7.022,3.99-10.673c0.657-2.909,2.23-5.761,4.196-7.987V86.411C80.688,86.531,79.885,86.693,79.111,86.989z"/>
<path d="M16.318,238.834c-1.73,0.84-3.926,1.631-5.293,3.041c-1.266,1.307-2.385,2.742-3.596,4.098
	c-2.215,2.478-5.207,6.356-4.763,7.586c2.167,2.167,3.271-0.312,5.234-1.589c1.071-0.696,2.037-3.161,4.792-3.284
	c1.834-0.082-0.331,4.14-0.7,5.17c-1.555,4.34-2.656,8.861-4.26,13.165c-0.73,1.963-1.77,3.621-2.01,5.752
	c-0.232,2.051-2.145,5.23,0.266,6.161c4.398-2.763,5.77-12.209,8.99-15.82c-0.374,3.836-2.671,11.464-3.955,15.098
	c-0.887,2.509-1.91,6.487,1.088,6.486c3.283-0.001,7.626-19.076,8.058-20.478c1.368,0.234-0.13,4.552-0.183,5.778
	c-0.04,0.926-0.145,1.817-0.431,2.704c-0.509,1.576-1.234,5.406-2.039,6.862c-1.125,2.038,2.729,3.742,3.711,1.393
	c2.728-6.53,3.157-9.726,5.577-16.057c0.743,1.801,0.326,2.548,0.102,4.414c-0.212,1.748-0.344,3.562-1.321,6.842
	c-0.874,2.932,1.034,5.282,2.917,2.053c1.539-2.643,2.245-5.995,2.807-9.279c0.582-3.4,1.968-6.425,2.382-9.864
	c0.856-7.118,2.47-14.964,4.889-21.726c0.425-1.188,0.911-2.336,1.423-3.469v-0.482H25.25
	C23.32,236.074,19.133,237.47,16.318,238.834z"/>
<path d="M166.629,146.982c0.654,1.729,2.088,3.137,2.73,4.972c0.557,1.593,0.959,3.235,1.533,4.823
	c1.294,3.576,3.09,7.026,4.477,10.588c2.964,7.614,4.247,15.583,6.568,23.371c1.263,4.239,4.032,8.275,6.039,12.197
	c1.807,3.53,3.262,7.201,4.937,10.788c3.202,6.854,8.304,12.607,11.166,19.667h15.691c-0.005-0.007-0.011-0.012-0.016-0.019
	c-3.39-4.367-4.498-10.519-6.374-15.6c-1.314-3.56-1.613-7.366-2.812-10.975c-1.117-3.361-1.896-6.586-2.393-10.09
	c-1.178-8.324-5.44-15.812-9.055-23.265c-3.771-7.774-6.816-15.853-9.653-24.014c-1.527-4.392-3.206-8.829-4.331-13.342
	c-1.004-4.023-2.986-7.383-3.462-11.583c-0.483-4.258-0.454-8.251-1.976-12.293c-1.387-3.684-1.749-7.566-2.91-11.313
	c-1.939-6.253-5.699-13.173-12.736-14.413c-0.434-0.077-0.867-0.182-1.301-0.27v51.723c0.117,0.057,0.242,0.134,0.377,0.237
	C165.711,140.154,165.584,144.218,166.629,146.982z"/>
<path d="M204.844,235.45c0.626,1.917,2.051,3.322,2.721,5.184c0.652,1.809,0.65,3.993,1.086,5.88
	c0.945,4.102,2.456,8.036,3.221,12.186c0.771,4.182,0.536,8.321,1.962,12.379c0.584,1.662,1.249,3.297,1.725,4.994
	c0.403,1.442,0.483,2.746,2.177,3.189c1.638,0.429,1.861-2.287,1.823-3.191c-0.062-1.493-0.575-1.217-1.15-4.108
	c-0.728-3.657-0.917-4.651-0.831-7.715c1.086-0.879,1.734,1.111,2.153,3.946c0.513,3.473,1.696,6.721,2.806,10.034
	c0.403,1.204,0.822,3.522,1.867,4.339c1.23,0.962,2.584,1.376,2.373-0.689c-0.375-3.657-3.093-12.383-2.752-16.041
	c1.443-0.143,2.502,3.964,3.147,6.041c0.341,1.097,0.866,3.079,1.306,4.141c0.77,1.855,0.846,3.907,1.609,5.735
	c0.709,1.695,2.037,2.773,3.637,1.865c0.612-1.814,0.23-3.593-0.171-5.786c-0.455-2.485-0.851-2.127-2.298-7.062
	c-0.389-1.329-2.211-5.02-0.85-7.062c0.68-0.085,0.936,0.681,2.978,6.636c0.233,0.681,3.287,8.054,4.051,8.096
	c1.653,0.091,2.175-0.925,2.206-2.19c0.051-2.068-0.738-3.541-1.346-5.392c-1.508-4.597-2.653-8.132-4.038-12.448
	c-0.8-2.496-1.56-5.006-2.323-7.513c-0.372-1.22-1.072-2.02,0.471-2.4c0.418-0.104,0.801-0.022,1.107,0.289
	c1.159,1.175,2.609,3.146,4.296,3.947c2.204,1.049,2.323,2.178,4.51,1.957c1.302-0.971-0.248-4.761-1.988-6
	c-2.478-1.764-3.316-4.01-5.146-6.225c-1.941-2.35-6.329-3.662-9.081-4.766c-2.492-1-4.646-2.154-6.329-4.312h-15.691
	C204.354,234.064,204.614,234.748,204.844,235.45z"/>
<path d="M67.379,290.85c-0.045,9.21-0.068,18.419-0.092,27.629s-0.047,18.419-0.094,27.629c-0.023,4.634,0.18,9.316-0.508,13.912
	c-0.565,3.782-1.396,6.984-2.677,10.563c-1.481,4.139-2.316,8.048-2.759,12.409c-0.4,3.936-0.219,8.003-1.061,11.879
	c-1.838,8.469-2.01,17.041-1.755,25.694c0.44,14.964,2.638,30.339,0.821,45.323h15.689c-0.012-3.509,0.509-7.03,1.068-10.567
	c0.475-2.994,0.762-6.122,1.857-8.97c0.908-2.36,1.936-4.497,2.396-7.005c1.044-5.677,3.037-10.937,4.538-16.474
	c1.507-5.563,2.854-11.232,4.081-16.864c1.912-8.769,1.502-17.663,1.486-26.594c-0.003-1.969-0.445-4.538,0.176-6.438
	c0.652-1.994,1.342-3.976,2.023-5.959c1.353-3.938,2.039-8.044,3.422-11.944c1.532-4.318,2.287-8.457,2.923-12.982
	c0.567-4.029,1.838-7.892,2.283-11.94c0.933-8.478,0.737-17.226,2.925-25.483c1.146-4.327,2.205-8.699,3.512-12.981
	c1.196-3.916,3.202-7.486,4.532-11.349c1.421-4.128,2.368-8.473,3.171-12.76c0.305-1.629,0.268-3.362,0.648-4.962
	c0.199-0.835,0.723-1.433,1.322-1.977H68.521c-0.136,1.015-0.275,2.029-0.41,3.043C66.917,272.619,67.424,281.849,67.379,290.85z"/>
<path d="M129.053,268.396c1.048,8.477,5.229,15.711,7.469,23.857c0.59,2.145,0.998,4.263,1.904,6.31
	c0.799,1.807,1.535,3.527,1.869,5.486c0.699,4.11,0.683,8.307,1.407,12.414c0.421,2.384,1.181,4.655,1.433,7.075
	c0.213,2.055,0.281,4.124,0.583,6.169c0.626,4.24,1.097,8.504,1.806,12.731c0.746,4.44,2.28,8.713,2.914,13.155
	c0.553,3.875,2.269,6.954,3.336,10.646c1.199,4.154,2.238,8.127,2.34,12.469c0.104,4.448,0.105,8.898,0.095,13.349
	c-0.01,4.289-0.509,8.775,0.694,12.927c1.109,3.824,2.107,7.636,2.939,11.53c1.732,8.123,4.281,15.986,6.375,24.018
	c1.175,4.501,2.191,9.02,3.082,13.584c0.401,2.052,0.818,4.088,1.051,6.166c0.214,1.929,1.162,3.622,1.051,5.606h15.59
	c-0.094-2.729-0.008-5.464,0.036-8.199c0.146-9.22,0.396-18.438,0.554-27.658c0.157-9.173-0.608-18.212-0.85-27.365
	c-0.122-4.613-1.162-9.001-1.568-13.57c-0.361-4.068-0.541-8.084-1.377-12.095c-0.443-2.129-0.779-4.37-1.604-6.395
	c-0.632-1.55-1.624-3.005-1.868-4.691c-0.58-4.017-0.938-8.071-0.961-12.131c-0.104-18.514-0.029-37.028-0.141-55.542
	c-0.055-9.044,0.208-18.128-0.025-27.164c-0.092-3.56-0.635-6.983-1.236-10.439h-49.074
	C129.13,262.511,128.701,265.556,129.053,268.396z"/>
</svg>
