<?xml version="1.0" encoding="utf-8"?>
<!-- Generator: Adobe Illustrator 16.0.0, SVG Export Plug-In . SVG Version: 6.00 Build 0)  -->
<!DOCTYPE svg PUBLIC "-//W3C//DTD SVG 1.1//EN" "http://www.w3.org/Graphics/SVG/1.1/DTD/svg11.dtd">
<svg version="1.1" id="Layer_1" xmlns="http://www.w3.org/2000/svg" xmlns:xlink="http://www.w3.org/1999/xlink" x="0px" y="0px"
	 width="245.5px" height="502.617px" viewBox="0 0 245.5 502.617" enable-background="new 0 0 245.5 502.617" xml:space="preserve">
<path d="M138.846,119.193c-1.66-0.9-2.813-2.233-3.521-3.805H104.61c-0.967,2.247-2.44,3.735-4.842,5.032
	c-3.827,2.067-8.112,3.404-12.073,5.228c-1.773,0.816-3.509,1.628-5.455,1.915c-0.906,0.133-1.828,0.214-2.738,0.348v51.546
	c0.111-0.127,0.221-0.26,0.334-0.382c1.576,2.698,2.344,4.526,2.734,7.688c0.243,1.977-0.07,5.029,0.76,6.84
	c2.061,4.495,2.494,10.518,2.863,15.407c0.34,4.509,1.143,9.138,1.014,13.656c-0.115,4.017-0.954,7.97-2.098,11.811
	c-1.164,3.915-2.432,7.902-4.307,11.528c-1.865,3.604-2.414,7.633-3.141,11.59c-1.527,8.332-5.07,16.14-6.562,24.463
	c-0.681,3.803-2.811,7.073-3.347,10.953c-0.42,3.037-0.826,6.083-1.232,9.127h48.789c0.444-0.404,0.93-0.779,1.359-1.196
	c1.029-0.999,2.188-2.041,3.738-1.835c1.621,0.215,2.205,1.698,3.535,2.404c0.356,0.189,0.659,0.401,0.932,0.627h49.074
	c-0.186-1.069-0.377-2.141-0.562-3.222c-0.707-4.123-1.349-8.239-2.513-12.265c-1.246-4.318-2.308-8.666-3.432-13.012
	c-0.493-1.906-1.67-3.535-2.338-5.374c-0.689-1.899-0.865-4.016-1.09-6.011c-0.25-2.211-0.354-4.3-1.303-6.336
	c-0.714-1.531-1.58-3.11-1.67-4.835c-0.198-3.777-1.999-7.13-3.384-10.568c-0.71-1.764-0.8-4.41-1.918-5.917
	c-1.079-1.454-1.703-3.162-1.963-4.945c-0.589-4.035-0.197-8.387,0.022-12.443c0.471-8.659,1.852-17.484,3.471-25.998
	c0.479-2.516,0.988-5.024,1.5-7.533c0.26-1.277,0.276-5.068,1.98-4.245v-51.723C153.174,126.169,145.641,122.875,138.846,119.193z"
	/>
</svg>
