<?xml version="1.0" encoding="utf-8"?>
<!-- Generator: Adobe Illustrator 16.0.0, SVG Export Plug-In . SVG Version: 6.00 Build 0)  -->
<!DOCTYPE svg PUBLIC "-//W3C//DTD SVG 1.1//EN" "http://www.w3.org/Graphics/SVG/1.1/DTD/svg11.dtd">
<svg version="1.1" id="Layer_1" xmlns="http://www.w3.org/2000/svg" xmlns:xlink="http://www.w3.org/1999/xlink" x="0px" y="0px"
	 width="223px" height="314px" viewBox="0 0 223 314" enable-background="new 0 0 223 314" xml:space="preserve">
<path fill-rule="evenodd" clip-rule="evenodd" d="M116,0.833c8.492,2.488,16.552,5.598,22.985,12.177
	c17.314,17.707,15.001,46.507-4.554,61.642c-9.639,7.459-20.334,7.145-31.332,6.797c-0.824-0.026-1.641-0.416-2.459-0.407
	c-4.843,0.05-8.639-1.633-12.701-4.667c-14.653-10.944-21.501-25.02-17.738-42.969c3.611-17.226,14.72-27.854,32.058-31.71
	c0.613-0.137,1.162-0.568,1.74-0.862C108,0.833,112,0.833,116,0.833z"/>
<path fill-rule="evenodd" clip-rule="evenodd" d="M73,309c-2.925-0.297-5.846-0.805-8.776-0.855
	c-12.298-0.217-24.6-0.285-36.899-0.441c-1.802-0.022-3.602-0.227-5.301-0.34c-3.854-13.521,5.639-27.382,20.987-30.125
	c5.248-0.938,10.82-0.474,16.21-0.128c13.257,0.849,26.535,0.499,39.778,1.558c1.144,0.092,2.228,0.201,3.71,0.5
	c-0.909,9.43-1.81,20.498-2.71,29.832C91,309,82,309,73,309z"/>
<path fill-rule="evenodd" clip-rule="evenodd" d="M150.455,309c2.925-0.297,5.846-0.805,8.776-0.855
	c12.299-0.217,24.6-0.285,36.899-0.441c1.803-0.022,3.602-0.227,5.301-0.34c3.854-13.521-5.639-27.382-20.987-30.125
	c-5.248-0.938-10.82-0.474-16.211-0.128c-13.257,0.849-26.534,0.499-39.778,1.558c-1.143,0.092-2.228,0.201-3.709,0.5
	c0.908,9.43,1.809,20.498,2.709,29.832C132.454,309,141.454,309,150.455,309z"/>
<path fill-rule="evenodd" clip-rule="evenodd" d="M8.347,190.864c0.122-1.316,0.179-2.644,0.377-3.948
	c1.628-10.747,4.022-12.734,14.615-12.129c5.142,0.294,10.282,0.636,15.243,0.945c1.19,2.374,2.123,4.602,3.369,6.635
	c1.826,2.979,4.818,6.289,1.383,9.221c-1.781,1.521-5.563,0.696-8.441,0.933c-0.135-0.463-0.271-0.925-0.405-1.387
	c-0.751,2.705-1.086,5.642-2.411,8.028c-0.79,1.427-3.3,2.989-4.748,2.748c-3.823-0.636-7.518-2.143-11.195-3.491
	c-0.793-0.29-1.197-1.515-1.961-2.05c-1.163-0.815-2.485-1.406-3.739-2.093C9.737,193.138,9.042,192.002,8.347,190.864z"/>
<path fill-rule="evenodd" clip-rule="evenodd" d="M64.333,94.834c-0.185-3.93,4.813-7.26,8.07-9.316
	c9.113-3.044,69.929-3.418,76.997-0.373c2.91,1.254,5.412,6.325,5.6,9.576c-0.5,16.779-0.802,29.982,0,46.446
	c1.275,15.833,2.549,24.9,3.035,37.458c0.124,3.195-0.701,5.17-3.511,6.923c-34.941,5.767-46.113,6.62-85.927,0.854
	c-3.426-0.496-3.995-3.948-3.77-7.33c0.287-4.312,0.069-8.66,0.069-12.992C65.275,166.065,65.41,117.728,64.333,94.834z"/>
<path fill-rule="evenodd" clip-rule="evenodd" d="M64.965,186.947c8.044,5.415,36.895,3.443,43.145,8.11
	c1.467,1.096-0.399,24.002-0.573,25.797c-1.636,16.857-1.734,33.821-3.636,50.653c-0.239,2.111-0.341,2.176-0.816,4.947
	c-15.562-1.22-31.252-0.398-46.719-1.61C59.229,245.572,62.042,216.83,64.965,186.947z"/>
<path fill-rule="evenodd" clip-rule="evenodd" d="M158.402,186.947c-8.044,5.415-36.895,3.443-43.145,8.11
	c-1.467,1.096,0.399,24.002,0.573,25.797c1.636,16.857,1.733,33.821,3.636,50.653c0.238,2.111,0.341,2.176,0.816,4.947
	c15.562-1.22,31.251-0.398,46.719-1.61C164.139,245.572,161.326,216.83,158.402,186.947z"/>
<path fill-rule="evenodd" clip-rule="evenodd" d="M17.607,157.245c14.483-20.725,28.628-40.965,43.694-62.523
	c0.479,4.778,0.929,7.965,1.095,11.167c0.674,12.949,1.351,42.661-0.586,44.422c-6.635,6.035-13.255,10.991-19.076,19.009
	c-3.436,4.73-5.649,4.496-11.983,4.021c-2.507-0.189-2.507-0.189-14-0.674C14.425,172.568,14.584,165.001,17.607,157.245z"/>
<path fill-rule="evenodd" clip-rule="evenodd" d="M211.748,190.864c-0.122-1.316-0.179-2.644-0.377-3.948
	c-1.629-10.747-4.022-12.734-14.615-12.129c-5.143,0.294-10.281,0.636-15.243,0.945c-1.19,2.374-2.122,4.602-3.368,6.635
	c-1.826,2.979-4.818,6.289-1.383,9.221c1.781,1.521,5.562,0.696,8.44,0.933c0.136-0.463,0.271-0.925,0.405-1.387
	c0.752,2.705,1.086,5.642,2.41,8.028c0.791,1.427,3.301,2.989,4.748,2.748c3.823-0.636,7.518-2.143,11.195-3.491
	c0.793-0.29,1.197-1.515,1.961-2.05c1.163-0.815,2.484-1.406,3.739-2.093C210.357,193.138,211.053,192.002,211.748,190.864z"/>
<path fill-rule="evenodd" clip-rule="evenodd" d="M202.488,157.245c-14.484-20.725-28.629-40.965-43.694-62.523
	c-0.479,4.778-0.929,7.965-1.095,11.167c-0.675,12.949-1.352,42.661,0.586,44.422c6.635,6.035,13.255,10.991,19.076,19.009
	c3.436,4.73,5.648,4.496,11.982,4.021c2.508-0.189,2.508-0.189,14-0.674C205.67,172.568,205.511,165.001,202.488,157.245z"/>
</svg>
